<?xml version="1.0" encoding="utf-8"?>
<!-- Generator: Adobe Illustrator 17.1.0, SVG Export Plug-In . SVG Version: 6.00 Build 0)  -->
<!DOCTYPE svg PUBLIC "-//W3C//DTD SVG 1.1//EN" "http://www.w3.org/Graphics/SVG/1.1/DTD/svg11.dtd">
<svg version="1.1" id="Laag_1" xmlns="http://www.w3.org/2000/svg" xmlns:xlink="http://www.w3.org/1999/xlink" x="0px" y="0px"
	  width='150px' viewBox="0 0 143.9 150" enable-background="new 0 0 143.9 150" xml:space="preserve">
<path fill="#FFFFFF" d="M140.2,26c0-14.3-11.7-26-26-26c-4.4,0-8.7,1.2-12.5,3.2C98.5,1.2,94.9,0,91.1,0c-7.9,0-14.9,4.8-17.9,12.1
	c-1.4-0.4-2.8-0.4-4.2-0.4c-10.7,0-19.3,8.7-19.3,19.3c0,1.4,0.2,2.8,0.4,4c-5.2,3.2-9.3,8.2-11.3,14.5c-2.4-0.8-5-1.2-7.7-1.2
	c-14.9,0-27.2,12.1-27.2,27.2c0,14.9,12.1,27.2,27.2,27.2c4,0,8.2-1,11.9-2.8c2.8,7.5,8.9,13.3,16.3,15.9l-5,8.2l7.7,5.2L54.2,150
	l22-19.5l-10.9-6.6l6.8-7c7.9-1,14.9-5.6,19.3-12.5c2.8,0.6,5.6,1,8.2,1c20.5,0,37.4-16.7,37.4-37.4c0-8-2.6-15.3-6.8-21.3
	C136.1,41.9,140.2,34.4,140.2,26z M68.9,17.3c1.8,0,3.4,0.4,5,1c0.4,0.2,0.8,0.2,1,0.2c0.4,0,1-0.2,1.4-0.4c0.8-0.4,1.2-1,1.4-2
	c1.4-6.2,6.8-10.5,13.1-10.5c3.2,0,6.2,1.2,8.7,3c0.6,0.4,1.2,0.6,1.8,0.6c0.6,0,1.2-0.2,1.6-0.4c3.2-2.2,7-3.2,11.1-3.2
	c11.1,0,20.3,9.1,20.3,20.3c0,6.6-3.2,12.5-8,16.1c-6.8-7-16.3-11.5-26.8-11.5c-6.6,0-13.3,1.8-18.9,5.2c-4.6-3.4-10.3-5.2-15.9-5.2
	c-3.2,0-6.2,0.6-9.1,1.6c0-0.4,0-1,0-1.4C55.4,23.3,61.4,17.3,68.9,17.3z M132.1,68c0,17.9-14.7,32.6-32.6,32.6
	c-2.8,0-5.8-0.4-8.9-1.2c-1-0.2-2.2,0.2-2.8,1.2c-3.8,7.3-11.5,11.7-19.7,11.7c-10.3,0-19.1-6.8-21.8-16.9c-0.2-0.8-0.8-1.4-1.4-1.6
	c-0.2-0.2-0.6-0.2-0.8-0.2c-0.4,0-0.8,0.2-1.2,0.4c-3.6,2.2-7.7,3.4-11.9,3.4c-12.3,0-22.3-10.1-22.3-22.3S18.8,52.8,31,52.8
	c2.8,0,5.6,0.6,8.4,1.6c0.6,0.2,1.4,0.2,2,0c0.6-0.4,1-0.8,1.2-1.6c1.2-5.6,4.6-10.3,9.1-13.5c1.6-1,3.2-2,5.2-2.6
	c2.4-0.8,5-1.4,7.7-1.4c5.2,0,10.3,1.8,14.3,5.2c0.8,0.6,2,0.8,2.8,0.2c5.2-3.4,11.5-5.4,17.9-5.4c8.9,0,16.7,3.4,22.5,9.3
	c1.4,1.4,2.8,2.8,3.8,4.6C129.9,54.6,132.1,61,132.1,68z"/>
</svg>
