<?xml version="1.0" encoding="utf-8"?>
<!-- Generator: Adobe Illustrator 17.1.0, SVG Export Plug-In . SVG Version: 6.00 Build 0)  -->
<!DOCTYPE svg PUBLIC "-//W3C//DTD SVG 1.1//EN" "http://www.w3.org/Graphics/SVG/1.1/DTD/svg11.dtd">
<svg version="1.1" id="Laag_1" xmlns="http://www.w3.org/2000/svg" xmlns:xlink="http://www.w3.org/1999/xlink" x="0px" y="0px"
	 width='150px' viewBox="0 0 143.9 150" enable-background="new 0 0 143.9 150" xml:space="preserve">
<path fill="#FFFFFF" d="M138.6,36.7c0-10.7-8.7-19.2-19.2-19.2c-1.3,0-2.4,0.2-3.7,0.4C106.3,6.5,92.5,0,77.7,0
	C61.1,0,45.8,8.1,36.6,21.6l1.8,1.3l-1.8-1.3c-2.6,3.7-4.6,7.9-6.1,12.2C21.1,34.3,12.4,39.7,8,48c-2.2,3.9-3.3,8.3-3.3,12.7
	c0,14.9,12.2,27.1,27.1,27.1c3.9,0,7.9-0.9,11.6-2.6c9.2,8.9,21.4,13.7,34.3,13.7c20.7,0,39.1-12.9,46.3-32.1c0.4,0,0.9,0,1.3,0
	c7.4,0,13.3-5.9,13.3-13.3c0-2.6-0.9-5.5-2.4-7.6C137.7,43.2,138.6,40,138.6,36.7z M131.8,47.6c1.5,1.8,2.4,3.7,2.4,5.9
	c0,5-3.9,8.9-8.9,8.9c-0.6,0-1.3,0-2.2-0.2l-2-0.4l-0.6,2c-6.1,18.6-23.4,31-43,31c-12.2,0-23.6-4.8-32.3-13.5l-1.1-1.1L42.6,81
	c-3.3,1.8-7,2.8-10.9,2.8c-12.5,0-22.7-10.3-22.7-22.7c0-3.7,0.9-7.4,2.6-10.7c3.9-7.4,11.6-12,19.9-12l0,0c0.2,0,0.2,0,0.4,0
	l1.5-0.2l0.6-1.8l-2.2-0.6l0,0l2.2,0.6c1.3-3.9,3.1-7.9,5.2-11.3h0.4v-0.6c0-0.2,0.2-0.2,0.2-0.4C48.4,11.6,62.4,4.4,77.3,4.4
	c14,0,26.8,6.3,35.6,17.3l0.9,1.1l1.3-0.4c1.3-0.4,2.6-0.6,3.9-0.6c8.3,0,14.9,6.8,14.9,14.9c0,3.1-0.9,5.9-2.6,8.3l-0.9,1.5
	L131.8,47.6z"/>
<path fill="#FFFFFF" d="M93.4,129c0-2.8-0.9-5.5-2.2-7.6l4.6-4.6L91,112l-4.6,4.6c-1.3-0.9-2.8-1.5-4.4-1.8v-6.3h-6.8v6.3
	c-1.5,0.4-3.1,1.1-4.4,1.8l-4.6-4.6l-4.8,4.8l4.6,4.6c-1.3,2.2-2.2,4.8-2.2,7.6s0.9,5.5,2.2,7.9l-4.6,4.6l4.8,4.8l4.8-4.8
	c1.3,0.9,2.6,1.3,4.2,1.8v6.8h6.8v-6.5c1.5-0.4,2.8-0.9,4.2-1.8l4.8,4.8l4.8-4.8l-4.6-4.8C92.5,134.7,93.4,131.9,93.4,129z
	 M78.6,135.4c-3.5,0-6.1-2.8-6.1-6.1c0-3.3,2.8-6.1,6.1-6.1c3.3,0,6.1,2.8,6.1,6.1C84.7,132.5,82.1,135.4,78.6,135.4z"/>
<path fill="#FFFFFF" d="M53,113.3c0-2.8-0.9-5.5-2.2-7.6l4.6-4.6l-4.8-4.8l-4.6,4.6c-1.3-0.9-2.8-1.5-4.4-1.8v-6.3h-6.8v6.3
	c-1.5,0.4-3.1,1.1-4.4,1.8L26,96.3l-4.8,4.8l4.6,4.6c-1.3,2.2-2.2,4.8-2.2,7.6c0,2.8,0.9,5.5,2.2,7.9l-4.6,4.6l4.8,4.8l4.8-4.8
	c1.3,0.9,2.6,1.3,4.2,1.8v6.8h6.8v-6.8c1.5-0.4,2.8-0.9,4.2-1.8l4.8,4.8l4.8-4.8l-4.6-4.6C52.2,118.8,53,116.2,53,113.3z
	 M38.2,119.4c-3.5,0-6.1-2.8-6.1-6.1s2.8-6.1,6.1-6.1c3.3,0,6.1,2.8,6.1,6.1S41.7,119.4,38.2,119.4z"/>
<path fill="#FFFFFF" d="M132.7,113.3c0-2.8-0.9-5.5-2.2-7.6l4.6-4.6l-4.8-4.8l-4.6,4.6c-1.3-0.9-2.8-1.5-4.4-1.8v-6.3h-6.8v6.3
	c-1.5,0.4-3.1,1.1-4.4,1.8l-4.6-4.6l-4.8,4.8l4.6,4.6c-1.3,2.2-2.2,4.8-2.2,7.6c0,2.8,0.9,5.5,2.2,7.9l-4.6,4.6l4.8,4.8l4.8-4.8
	c1.3,0.9,2.6,1.3,4.2,1.8v6.8h6.8v-6.8c1.5-0.4,2.8-0.9,4.2-1.8l4.8,4.8l4.8-4.8l-4.6-4.6C132.1,118.8,132.7,116.2,132.7,113.3z
	 M118.1,119.4c-3.5,0-6.1-2.8-6.1-6.1s2.8-6.1,6.1-6.1c3.5,0,6.1,2.8,6.1,6.1S121.6,119.4,118.1,119.4z"/>
</svg>
