<?xml version="1.0" encoding="utf-8"?>
<!-- Generator: Adobe Illustrator 17.1.0, SVG Export Plug-In . SVG Version: 6.00 Build 0)  -->
<!DOCTYPE svg PUBLIC "-//W3C//DTD SVG 1.1//EN" "http://www.w3.org/Graphics/SVG/1.1/DTD/svg11.dtd">
<svg version="1.1" id="Layer_1" xmlns="http://www.w3.org/2000/svg" xmlns:xlink="http://www.w3.org/1999/xlink" x="0px" y="0px"
	 viewBox="0 0 980 513" width="50px" enable-background="new 0 0 980 513" xml:space="preserve">
<g>
	<rect x="400.2" y="0" fill="#FFFFFF" width="16.7" height="61.8"/>
</g>
<g>
	
		<rect x="275" y="65.4" transform="matrix(0.7071 0.7071 -0.7071 0.7071 141.7564 -194.7274)" fill="#FFFFFF" width="61.8" height="16.7"/>
</g>
<g>
	
		<rect x="502.7" y="42.7" transform="matrix(0.7071 0.7071 -0.7071 0.7071 201.7008 -339.813)" fill="#FFFFFF" width="16.7" height="61.8"/>
</g>
<g>
	<rect x="232.2" y="176.3" fill="#FFFFFF" width="61.8" height="16.7"/>
</g>
<path fill="#FFFFFF" d="M747.8,273.2c0-40.9-33.4-73.5-73.5-73.5c-5,0-9.2,0.8-14.2,1.7c-35.9-43.4-88.6-68.5-145.4-68.5
	c-5.8,0-11.7,0-16.7,0.8c-17.5-30.9-51-51.8-89.4-51.8c-56,0-101.9,45.1-102.8,101.9l0,0c0,0,0,0,0,0.8v0.8l0,0
	c0,28.4,12.5,53.5,30.9,71.9c-0.8,1.7-1.7,3.3-2.5,5.8c-55.1,2.5-98.6,47.6-98.6,103.6c0,56.8,46.8,103.6,103.6,103.6
	c15,0,30.1-3.3,44.3-10c35.1,34.3,81.9,52.6,131.2,52.6c79.4,0,149.6-49.3,177.1-122.8c1.7,0,3.3,0,5,0c28.4,0,51-22.6,51-51
	c0-10-3.3-20.9-9.2-29.2C744.4,298.3,747.8,285.7,747.8,273.2z M322.5,183.8c0-46.8,38.4-85.2,86.1-85.2c29.2,0,56,15,71,37.6
	c-58.5,10.9-109.5,50.1-135.4,103.6C330.8,224.8,322.5,205.5,322.5,183.8z M722.7,315.8c5.8,6.7,9.2,14.2,9.2,22.6
	c0,19.2-15,34.3-34.3,34.3c-2.5,0-5,0-8.4-0.8l-7.5-1.7l-3.3,6.7c-23.4,71-89.4,118.6-163.8,118.6c-46.8,0-90.2-18.4-123.7-51.8
	l-4.2-4.2l-5.8,3.3c-12.5,6.7-26.7,10.9-41.8,10.9c-47.6,0-86.9-39.3-86.9-86.9s39.3-87.7,87.7-87.7l0,0h7.5l1.7-5.8
	c0.8-1.7,0.8-3.3,1.7-5c1.7-5.8,4.2-10.9,5.8-15.9c24.2-53.5,73.5-91.1,131.2-100.3c5.8-0.8,11.7-1.7,17.5-1.7c3.3,0,6.7,0,9.2,0
	c53.5,0,102.8,24.2,136.2,66l3.3,4.2l5-1.7c37.6-10,71.9,18.4,71.9,55.1c0,11.7-3.3,22.6-10,31.7l-3.3,5L722.7,315.8z"/>
</svg>
