<?xml version="1.0" encoding="utf-8"?>
<!-- Generator: Adobe Illustrator 17.1.0, SVG Export Plug-In . SVG Version: 6.00 Build 0)  -->
<!DOCTYPE svg PUBLIC "-//W3C//DTD SVG 1.1//EN" "http://www.w3.org/Graphics/SVG/1.1/DTD/svg11.dtd">
<svg version="1.1" id="Laag_1" xmlns="http://www.w3.org/2000/svg" xmlns:xlink="http://www.w3.org/1999/xlink" x="0px" y="0px"
	 width='150px' viewBox="0 0 143.9 150" enable-background="new 0 0 143.9 150" xml:space="preserve">
<g>
	<g>
		<rect x="68.5" y="0" fill="#FFFFFF" width="6.8" height="25.2"/>
	</g>
	<g>
		
			<rect x="17.5" y="26.5" transform="matrix(-0.7071 -0.7071 0.7071 -0.7071 30.3728 72.3262)" fill="#FFFFFF" width="25.2" height="6.8"/>
	</g>
	<g>
		
			<rect x="110.4" y="17.2" transform="matrix(-0.7071 -0.7071 0.7071 -0.7071 173.253 131.3804)" fill="#FFFFFF" width="6.8" height="25.2"/>
	</g>
	<g>
		<rect x="118.6" y="71.9" fill="#FFFFFF" width="25.2" height="6.8"/>
	</g>
	<g>
		<rect x="0" y="71.9" fill="#FFFFFF" width="25.2" height="6.8"/>
	</g>
	<path fill="#FFFFFF" d="M113.9,75L113.9,75L113.9,75c-0.4-23.2-19.1-41.6-41.9-41.6S30.4,51.8,30,75l0,0c0,0,0,0,0,0.4v0.4l0,0
		c0.4,22.8,19.1,41.6,41.9,41.6S113.5,98.2,113.9,75L113.9,75L113.9,75z M71.9,109.8c-19.4,0-35.1-15.7-35.1-34.8
		s15.7-34.8,35.1-34.8S107,55.9,107,75C107,94.4,91.4,109.8,71.9,109.8z"/>
	<g>
		<rect x="68.5" y="124.8" fill="#FFFFFF" width="6.8" height="25.2"/>
	</g>
	<g>
		
			<rect x="101.3" y="116.6" transform="matrix(0.707 0.7072 -0.7072 0.707 118.2694 -45.3826)" fill="#FFFFFF" width="25.2" height="6.8"/>
	</g>
	<g>
		
			<rect x="26.7" y="107.4" transform="matrix(0.7071 0.7071 -0.7071 0.7071 93.6684 13.876)" fill="#FFFFFF" width="6.8" height="25.2"/>
	</g>
</g>
</svg>
