<?xml version="1.0" encoding="utf-8"?>
<!-- Generator: Adobe Illustrator 17.1.0, SVG Export Plug-In . SVG Version: 6.00 Build 0)  -->
<!DOCTYPE svg PUBLIC "-//W3C//DTD SVG 1.1//EN" "http://www.w3.org/Graphics/SVG/1.1/DTD/svg11.dtd">
<svg version="1.1" id="Layer_1" xmlns="http://www.w3.org/2000/svg" xmlns:xlink="http://www.w3.org/1999/xlink" x="0px" y="0px"
	 viewBox="0 0 980 513" width="50px" enable-background="new 0 0 980 513" xml:space="preserve">
<g>
	<path fill="#FFFFFF" d="M507.2,405.1l-6.7,10.1c-5,7.5-29.4,45.3-29.4,62.9c0,20.1,16.8,36.9,36.9,36.9s36.9-16.8,36.9-36.9
		c0-17.6-25.2-55.4-29.4-62.9L507.2,405.1z M507.2,498.2c-10.9,0-19.3-9.2-19.3-20.1c0-7.5,10.1-26.8,20.1-41.9
		c10.1,15.9,20.1,35.2,20.1,41.9C527.3,489,518.1,498.2,507.2,498.2z"/>
	<path fill="#FFFFFF" d="M747.1,140.9c0-41.1-33.6-73.8-73.8-73.8c-5,0-9.2,0.8-14.3,1.7C622.1,25.2,569.3,0,512.2,0
		c-81.4,0-155.2,52.8-180.3,130c-55.4,2.5-99,47.8-99,104c0,57,47,104,104,104c15.1,0,30.2-3.4,44.5-10.1
		c35.2,34.4,82.2,52.8,131.7,52.8c79.7,0,150.1-49.5,177.8-123.3c1.7,0,3.4,0,5,0c28.5,0,51.2-22.6,51.2-51.2
		c0-10.1-3.4-21-9.2-29.4C743.7,166.1,747.1,153.5,747.1,140.9z M721.1,182.9c5.9,6.7,9.2,14.3,9.2,22.6c0,19.3-15.1,34.4-34.4,34.4
		c-2.5,0-5,0-8.4-0.8l-7.5-1.7l-2.5,7.5C654,316.2,587.7,364,513.1,364c-47,0-90.6-18.5-124.1-52l-4.2-4.2l-5.9,2.5
		c-12.6,6.7-26.8,10.9-41.9,10.9c-47.8,0-87.2-39.4-87.2-87.2s39.4-87.2,87.2-87.2l0,0h7.5l1.7-5.9c21.8-73,89.7-124.1,166.1-124.1
		c53.7,0,103.2,24.3,136.7,66.3l3.4,4.2l5-1.7c5-1.7,10.1-2.5,15.1-2.5c31.9,0,57,26,57,57c0,11.7-3.4,22.6-10.1,31.9l-3.4,5.9
		L721.1,182.9z"/>
</g>
</svg>
