<?xml version="1.0" encoding="utf-8"?>
<!-- Generator: Adobe Illustrator 17.1.0, SVG Export Plug-In . SVG Version: 6.00 Build 0)  -->
<!DOCTYPE svg PUBLIC "-//W3C//DTD SVG 1.1//EN" "http://www.w3.org/Graphics/SVG/1.1/DTD/svg11.dtd">
<svg version="1.1" id="Layer_1" xmlns="http://www.w3.org/2000/svg" xmlns:xlink="http://www.w3.org/1999/xlink" x="0px" y="0px"
	 viewBox="0 0 980 513" width="50px" enable-background="new 0 0 980 513" xml:space="preserve">
<path fill="#FFFFFF" d="M507.1,403.5l-6.7,10c-5,7.5-29.2,45.1-29.2,62.7c0,20.1,16.7,36.8,36.8,36.8c20.1,0,36.8-16.7,36.8-36.8
	c0-17.5-25.1-55.1-29.2-62.7L507.1,403.5z M507.1,496.3c-10.9,0-19.2-9.2-19.2-20.1c0-7.5,10-26.7,20.1-41.8
	c10,15.9,20.1,35.1,20.1,41.8C527.2,487.1,518,496.3,507.1,496.3z"/>
<path fill="#FFFFFF" d="M423.6,403.5l-6.7,10c-5,7.5-29.2,45.1-29.2,62.7c0,20.1,16.7,36.8,36.8,36.8s36.8-16.7,36.8-36.8
	c0-17.5-25.1-55.1-29.2-62.7L423.6,403.5z M423.6,496.3c-10.9,0-19.2-9.2-19.2-20.1c0-7.5,10-26.7,20.1-41.8
	c10,15.9,20.1,35.1,20.1,41.8C443.6,487.1,434.4,496.3,423.6,496.3z"/>
<path fill="#FFFFFF" d="M590.7,403.5l-6.7,10c-5,7.5-29.2,45.1-29.2,62.7c0,20.1,16.7,36.8,36.8,36.8s36.8-16.7,36.8-36.8
	c0-17.5-25.1-55.1-29.2-62.7L590.7,403.5z M590.7,496.3c-10.9,0-19.2-9.2-19.2-20.1c0-7.5,10-26.7,20.1-41.8
	c10,15.9,20.1,35.1,20.1,41.8C610.7,487.1,601.5,496.3,590.7,496.3z"/>
<path fill="#FFFFFF" d="M746.1,140.4c0-40.9-33.4-73.5-73.5-73.5c-5,0-9.2,0.8-14.2,1.7C621.6,25.1,569,0,512.1,0
	c-81,0-154.6,52.6-179.6,129.5c-55.1,2.5-98.6,47.6-98.6,103.6c0,56.8,46.8,103.6,103.6,103.6c15,0,30.1-3.3,44.3-10
	c35.1,34.3,81.9,52.6,131.2,52.6c79.4,0,149.6-49.3,177.1-122.8c1.7,0,3.3,0,5,0c28.4,0,51-22.6,51-51c0-10-3.3-20.9-9.2-29.2
	C742.7,165.4,746.1,152.9,746.1,140.4z M720.2,182.1c5.8,6.7,9.2,14.2,9.2,22.6c0,19.2-15,34.3-34.3,34.3c-2.5,0-5,0-8.4-0.8
	l-7.5-1.7l-2.5,7.5c-23.4,71-89.4,118.6-163.8,118.6c-46.8,0-90.2-18.4-123.7-51.8l-4.2-4.2l-5.8,2.5c-12.5,6.7-26.7,10.9-41.8,10.9
	c-47.6,0-86.9-39.3-86.9-86.9s39.3-86.9,86.9-86.9l0,0h7.5l1.7-5.8c21.7-72.7,89.4-123.7,165.4-123.7c53.5,0,102.8,24.2,136.2,66
	l3.3,4.2l5-1.7c5-1.7,10-2.5,15-2.5c31.7,0,56.8,25.9,56.8,56.8c0,11.7-3.3,22.6-10,31.7l-3.3,5.8L720.2,182.1z"/>
</svg>
