<?xml version="1.0" encoding="utf-8"?>
<!-- Generator: Adobe Illustrator 17.1.0, SVG Export Plug-In . SVG Version: 6.00 Build 0)  -->
<!DOCTYPE svg PUBLIC "-//W3C//DTD SVG 1.1//EN" "http://www.w3.org/Graphics/SVG/1.1/DTD/svg11.dtd">
<svg version="1.1" id="Layer_1" xmlns="http://www.w3.org/2000/svg" xmlns:xlink="http://www.w3.org/1999/xlink" x="0px" y="0px"
	 width='150px' viewBox="0 0 980 513" enable-background="new 0 0 980 513" xml:space="preserve">
<path fill="#FFFFFF" d="M656.8,123.3c-8.6,0-17.2,1.3-25.2,4c-11.9-36.4-45.7-60.9-84.7-60.9c-19.2,0-37.1,6-52.3,17.2
	c-19.2-11.3-40.4-17.2-62.2-17.2c-67.5,0-123.1,54.9-123.1,123.1c0,10.6,1.3,20.5,4,29.8c-45.7,4-80.8,42.4-80.8,88.7
	c0,49,39.7,89.4,89.4,89.4c13.2,0,27.1-3.3,39.1-9.3c13.2,34.4,45.7,57.6,83.4,57.6c30.4,0,58.9-15.9,75.5-41.7
	c9.3,2,18.5,3.3,27.1,3.3c62.2,0,113.2-46.3,121.8-105.9c44.4-5.3,78.8-43,78.8-88C745.5,163.7,705.8,123.3,656.8,123.3z
	 M545.6,391.4c-9.3,0-19.2-1.3-29.1-4c-3.3-1.3-7.3,0.7-9.3,4c-12.6,23.8-37.7,38.4-64.9,38.4c-33.8,0-62.9-22.5-71.5-55.6
	c-0.7-2.6-2.6-4.6-4.6-5.3c0-0.7-0.7-0.7-2-0.7s-2.6,0.7-4,1.3c-11.9,7.3-25.2,11.3-39.1,11.3c-40.4,0-73.5-33.1-73.5-73.5
	c0-39.7,31.1-71.5,70.2-73.5c1.3,0,2,0,3.3,0c4.6,0,9.9,0.7,14.6,1.3c4.6,0.7,8.6,2,13.2,4c2,0.7,4.6,0.7,6.6,0c2-1.3,3.3-2.6,4-5.3
	c7.3-33.8,37.1-56.9,71.5-56.9c17.2,0,33.8,6,47,17.2c2.6,2,6.6,2.6,9.3,0.7c17.2-11.3,37.7-17.9,58.9-17.9
	c58.9,0,107.2,48.3,107.2,107.2c0,0.7,0,1.3,0,2c0,5.3-0.7,10.6-1.3,15.2C642.9,352.3,598.6,391.4,545.6,391.4z M668.1,284.8
	c0-0.7,0-0.7,0-1.3c0-67.5-54.9-123.1-123.1-123.1c-21.8,0-43.7,6-62.2,17.2c-15.2-11.3-33.8-17.2-52.3-17.2
	c-39.1,0-72.8,24.5-84.7,60.9c-6-2-11.3-2.6-17.2-3.3c-2.6-9.3-4.6-19.2-4.6-29.8c0-58.9,48.3-107.2,107.2-107.2
	c21.2,0,41,6,58.9,17.9c2.6,2,6.6,2,9.3-0.7c13.2-11.3,29.8-17.2,47-17.2c34.4,0,64.2,23.8,71.5,56.9c0.7,2,2,4,4,5.3
	c2,1.3,4.6,1.3,6.6,0c8.6-3.3,17.9-5.3,27.8-5.3c40.4,0,73.5,33.1,73.5,73.5C730.3,249,703.1,279.5,668.1,284.8z"/>
</svg>
