<?xml version="1.0" encoding="utf-8"?>
<!-- Generator: Adobe Illustrator 17.1.0, SVG Export Plug-In . SVG Version: 6.00 Build 0)  -->
<!DOCTYPE svg PUBLIC "-//W3C//DTD SVG 1.1//EN" "http://www.w3.org/Graphics/SVG/1.1/DTD/svg11.dtd">
<svg version="1.1" id="Layer_1" xmlns="http://www.w3.org/2000/svg" xmlns:xlink="http://www.w3.org/1999/xlink" x="0px" y="0px"
	 viewBox="0 0 980 513" width="50px" enable-background="new 0 0 980 513" xml:space="preserve">
<path fill="#FFFFFF" d="M723.1,89.1c0-48.9-39.9-88.8-88.8-88.8c-15.1,0-29.6,4.1-42.7,11c-11-6.9-23.4-11-36.5-11
	c-26.9,0-51,16.5-61.3,41.3c-4.8-1.4-9.6-1.4-14.5-1.4c-36.5,0-66.1,29.6-66.1,66.1c0,4.8,0.7,9.6,1.4,13.8
	c-17.9,11-31.7,28.2-38.6,49.6c-8.3-2.8-17.2-4.1-26.2-4.1c-51,0-93,41.3-93,93c0,51,41.3,93,93,93c13.8,0,28.2-3.4,40.6-9.6
	c9.6,25.5,30.3,45.4,55.8,54.4l-17.2,28.2l26.2,17.9l-26.2,70.9l75.1-66.8l-37.2-22.7l23.4-24.1c26.9-3.4,51-19.3,66.1-42.7
	c9.6,2.1,19.3,3.4,28.2,3.4c70.2,0,128.1-57.2,128.1-128.1c0-27.5-9-52.3-23.4-73C709.3,143.5,723.1,118,723.1,89.1z M479.3,59.5
	c6.2,0,11.7,1.4,17.2,3.4c1.4,0.7,2.8,0.7,3.4,0.7c1.4,0,3.4-0.7,4.8-1.4c2.8-1.4,4.1-3.4,4.8-6.9c4.8-21.3,23.4-35.8,44.8-35.8
	c11,0,21.3,4.1,29.6,10.3c2.1,1.4,4.1,2.1,6.2,2.1c2.1,0,4.1-0.7,5.5-1.4c11-7.6,24.1-11,37.9-11c37.9,0,69.5,31,69.5,69.5
	c0,22.7-11,42.7-27.5,55.1c-23.4-24.1-55.8-39.2-91.6-39.2c-22.7,0-45.4,6.2-64.7,17.9c-15.8-11.7-35.1-17.9-54.4-17.9
	c-11,0-21.3,2.1-31,5.5c0-1.4,0-3.4,0-4.8C433.2,80.1,453.8,59.5,479.3,59.5z M695.5,233c0,61.3-50.3,111.6-111.6,111.6
	c-9.6,0-20-1.4-30.3-4.1c-3.4-0.7-7.6,0.7-9.6,4.1c-13.1,24.8-39.2,39.9-67.5,39.9c-35.1,0-65.4-23.4-74.4-57.8
	c-0.7-2.8-2.8-4.8-4.8-5.5c-0.7-0.7-2.1-0.7-2.8-0.7c-1.4,0-2.8,0.7-4.1,1.4c-12.4,7.6-26.2,11.7-40.6,11.7
	c-42,0-76.4-34.4-76.4-76.4s34.4-76.4,76.4-76.4c9.6,0,19.3,2.1,28.9,5.5c2.1,0.7,4.8,0.7,6.9,0c2.1-1.4,3.4-2.8,4.1-5.5
	c4.1-19.3,15.8-35.1,31-46.1c5.5-3.4,11-6.9,17.9-9c8.3-2.8,17.2-4.8,26.2-4.8c17.9,0,35.1,6.2,48.9,17.9c2.8,2.1,6.9,2.8,9.6,0.7
	c17.9-11.7,39.2-18.6,61.3-18.6c30.3,0,57.2,11.7,77.1,31.7c4.8,4.8,9.6,9.6,13.1,15.8C688,186.9,695.5,208.9,695.5,233z"/>
</svg>
