<?xml version="1.0" encoding="utf-8"?>
<!-- Generator: Adobe Illustrator 17.1.0, SVG Export Plug-In . SVG Version: 6.00 Build 0)  -->
<!DOCTYPE svg PUBLIC "-//W3C//DTD SVG 1.1//EN" "http://www.w3.org/Graphics/SVG/1.1/DTD/svg11.dtd">
<svg version="1.1" id="Layer_1" xmlns="http://www.w3.org/2000/svg" xmlns:xlink="http://www.w3.org/1999/xlink" x="0px" y="0px"
	 viewBox="0 0 980 513" width="50px" enable-background="new 0 0 980 513" xml:space="preserve">
<g>
	<path fill="#FFFFFF" d="M245.7,188.1h244.7c1.5,0.1,3,0.5,4.5,0.5c31,0,56.1-25.1,56.1-56.1S525.9,76.3,495,76.3
		c-31,0-56.1,25.1-56.1,56.1c0,10.8,3.2,20.7,8.4,29.3H245.7c-7.3,0-13.2,5.9-13.2,13.2C232.5,182.2,238.4,188.1,245.7,188.1z"/>
	<path fill="#FFFFFF" d="M568.7,323.7c-0.4,0-0.7-0.2-1.1-0.2H254c-7.3,0-13.2,5.9-13.2,13.2c0,7.3,5.9,13.2,13.2,13.2H519
		c-5.4,8.6-8.7,18.8-8.7,29.7c0,31,25.1,56.1,56.1,56.1c31,0,56.1-25.1,56.1-56.1C622.6,349.3,598.6,324.9,568.7,323.7z"/>
	<path fill="#FFFFFF" d="M747.5,217.8c0-31-25.1-56.1-56.1-56.1c-31,0-56.1,25.1-56.1,56.1c0,10.9,3.3,21.1,8.7,29.7H246.8
		c-7.3,0-13.2,5.9-13.2,13.2c0,7.3,5.9,13.2,13.2,13.2h445.7c0.4,0,0.7-0.2,1.1-0.2C723.5,272.5,747.5,248,747.5,217.8z"/>
</g>
</svg>
