<?xml version="1.0" encoding="utf-8"?>
<!-- Generator: Adobe Illustrator 17.1.0, SVG Export Plug-In . SVG Version: 6.00 Build 0)  -->
<!DOCTYPE svg PUBLIC "-//W3C//DTD SVG 1.1//EN" "http://www.w3.org/Graphics/SVG/1.1/DTD/svg11.dtd">
<svg version="1.1" id="Layer_1" xmlns="http://www.w3.org/2000/svg" xmlns:xlink="http://www.w3.org/1999/xlink" x="0px" y="0px"
	 viewBox="0 0 980 513"  width="50px" enable-background="new 0 0 980 513" xml:space="preserve">
<g>
	<rect x="478.3" y="0" fill="#FFFFFF" width="23.3" height="86.3"/>
</g>
<g>
	
		<rect x="304" y="90.5" transform="matrix(0.7071 0.7071 -0.7071 0.7071 173.9271 -215.5354)" fill="#FFFFFF" width="86.3" height="23.3"/>
</g>
<g>
	
		<rect x="621.7" y="58.8" transform="matrix(0.7071 0.7071 -0.7071 0.7071 257.5671 -417.9862)" fill="#FFFFFF" width="23.3" height="86.3"/>
</g>
<g>
	<rect x="649.7" y="246" fill="#FFFFFF" width="86.3" height="23.3"/>
</g>
<g>
	<rect x="244" y="246" fill="#FFFFFF" width="86.3" height="23.3"/>
</g>
<path fill="#FFFFFF" d="M633.4,256.5L633.4,256.5L633.4,256.5c-1.2-79.3-65.3-142.2-143.4-142.2s-142.2,63-143.4,142.2l0,0
	c0,0,0,0,0,1.2v1.2l0,0c1.2,78.1,65.3,142.2,143.4,142.2S632.2,335.8,633.4,256.5L633.4,256.5L633.4,256.5z M490,375.4
	c-66.5,0-120.1-53.6-120.1-118.9c0-65.3,53.6-118.9,120.1-118.9s120.1,53.6,120.1,118.9C610.1,323,556.5,375.4,490,375.4z"/>
<g>
	<rect x="478.3" y="426.7" fill="#FFFFFF" width="23.3" height="86.3"/>
</g>
<g>
	
		<rect x="590.5" y="398.9" transform="matrix(-0.707 -0.7072 0.7072 -0.707 791.2061 1148.9264)" fill="#FFFFFF" width="86.3" height="23.3"/>
</g>
<g>
	
		<rect x="335.2" y="367.2" transform="matrix(-0.7071 -0.7071 0.7071 -0.7071 301.9878 945.8359)" fill="#FFFFFF" width="23.3" height="86.3"/>
</g>
</svg>
