<?xml version="1.0" encoding="utf-8"?>
<!-- Generator: Adobe Illustrator 17.1.0, SVG Export Plug-In . SVG Version: 6.00 Build 0)  -->
<!DOCTYPE svg PUBLIC "-//W3C//DTD SVG 1.1//EN" "http://www.w3.org/Graphics/SVG/1.1/DTD/svg11.dtd">
<svg version="1.1" id="Laag_1" xmlns="http://www.w3.org/2000/svg" xmlns:xlink="http://www.w3.org/1999/xlink" x="0px" y="0px"
	 width='150px' viewBox="0 0 143.9 150" enable-background="new 0 0 143.9 150" xml:space="preserve">
<g>
	<g>
		<rect x="46.9" y="3.7" fill="#FFFFFF" width="4.7" height="17.2"/>
	</g>
	<g>
		
			<rect x="11.9" y="21.9" transform="matrix(-0.7071 -0.7071 0.7071 -0.7071 17.9538 55.9575)" fill="#FFFFFF" width="17.2" height="4.7"/>
	</g>
	<g>
		
			<rect x="75.5" y="15.6" transform="matrix(-0.7071 -0.7071 0.7071 -0.7071 115.676 96.3628)" fill="#FFFFFF" width="4.7" height="17.2"/>
	</g>
	<g>
		<rect x="0" y="52.9" fill="#FFFFFF" width="17.2" height="4.7"/>
	</g>
	<path fill="#FFFFFF" d="M143.9,79.9c0-11.4-9.3-20.5-20.5-20.5c-1.4,0-2.6,0.2-4,0.5c-10-12.1-24.7-19.1-40.6-19.1
		c-1.6,0-3.3,0-4.7,0.2c-4.9-8.6-14.2-14.5-24.9-14.5c-15.6,0-28.4,12.6-28.7,28.4l0,0c0,0,0,0,0,0.2v0.2l0,0
		c0,7.9,3.5,14.9,8.6,20.1c-0.2,0.5-0.5,0.9-0.7,1.6C13.1,77.8,0.9,90.4,0.9,106c0,15.8,13.1,28.9,28.9,28.9c4.2,0,8.4-0.9,12.4-2.8
		c9.8,9.6,22.9,14.7,36.6,14.7c22.2,0,41.7-13.8,49.4-34.3c0.5,0,0.9,0,1.4,0c7.9,0,14.2-6.3,14.2-14.2c0-2.8-0.9-5.8-2.6-8.1
		C142.9,86.9,143.9,83.4,143.9,79.9z M25.2,55c0-13.1,10.7-23.8,24-23.8c8.1,0,15.6,4.2,19.8,10.5c-16.3,3-30.6,14-37.8,28.9
		C27.5,66.4,25.2,61,25.2,55z M136.9,91.8c1.6,1.9,2.6,4,2.6,6.3c0,5.4-4.2,9.6-9.6,9.6c-0.7,0-1.4,0-2.3-0.2l-2.1-0.5l-0.9,1.9
		c-6.5,19.8-24.9,33.1-45.7,33.1c-13.1,0-25.2-5.1-34.5-14.5l-1.2-1.2l-1.6,0.9c-3.5,1.9-7.4,3-11.7,3c-13.3,0-24.2-11-24.2-24.2
		s11-24.5,24.5-24.5l0,0h2.1l0.5-1.6c0.2-0.5,0.2-0.9,0.5-1.4c0.5-1.6,1.2-3,1.6-4.4c6.8-14.9,20.5-25.4,36.6-28
		c1.6-0.2,3.3-0.5,4.9-0.5c0.9,0,1.9,0,2.6,0c14.9,0,28.7,6.8,38,18.4l0.9,1.2l1.4-0.5c10.5-2.8,20.1,5.1,20.1,15.4
		c0,3.3-0.9,6.3-2.8,8.8l-0.9,1.4L136.9,91.8z"/>
</g>
</svg>
