<?xml version="1.0" encoding="utf-8"?>
<!-- Generator: Adobe Illustrator 17.1.0, SVG Export Plug-In . SVG Version: 6.00 Build 0)  -->
<!DOCTYPE svg PUBLIC "-//W3C//DTD SVG 1.1//EN" "http://www.w3.org/Graphics/SVG/1.1/DTD/svg11.dtd">
<svg version="1.1" id="Layer_1" xmlns="http://www.w3.org/2000/svg" xmlns:xlink="http://www.w3.org/1999/xlink" x="0px" y="0px"
	 viewBox="0 0 980 513" width="50px" enable-background="new 0 0 980 513" xml:space="preserve">
<path fill="#FFFFFF" d="M718.9,125.4c0-36.6-29.9-65.7-65.7-65.7c-4.5,0-8.2,0.7-12.7,1.5C608.4,22.4,561.3,0,510.5,0
	c-56.8,0-109,27.6-140.4,73.9l6,4.5l-6-4.5c-9,12.7-15.7,26.9-20.9,41.8c-32.1,1.5-62,20.2-76.9,48.5c-7.5,13.4-11.2,28.4-11.2,43.3
	c0,50.8,41.8,92.6,92.6,92.6c13.4,0,26.9-3,39.6-9c31.4,30.6,73.2,47,117.2,47c70.9,0,133.7-44.1,158.3-109.8c1.5,0,3,0,4.5,0
	c25.4,0,45.6-20.2,45.6-45.6c0-9-3-18.7-8.2-26.1C715.9,147.9,718.9,136.7,718.9,125.4z M695.7,162.8c5.2,6,8.2,12.7,8.2,20.2
	c0,17.2-13.4,30.6-30.6,30.6c-2.2,0-4.5,0-7.5-0.7l-6.7-1.5l-2.2,6.7c-20.9,63.5-79.9,106-147.1,106c-41.8,0-80.6-16.4-110.5-46.3
	l-3.7-3.7l-5.2,3c-11.2,6-23.9,9.7-37.3,9.7c-42.6,0-77.7-35.1-77.7-77.7c0-12.7,3-25.4,9-36.6c13.4-25.4,39.6-41.1,68-41.1l0,0
	c0.7,0,0.7,0,1.5,0l5.2-0.7l2.2-6l-7.5-2.2l0,0l7.5,2.2c4.5-13.4,10.5-26.9,17.9-38.8h1.5v-2.2c0-0.7,0.7-0.7,0.7-1.5
	c29.1-42.6,76.9-67.2,127.7-67.2c47.8,0,91.8,21.7,121.7,59l3,3.7l4.5-1.5c4.5-1.5,9-2.2,13.4-2.2c28.4,0,50.8,23.1,50.8,50.8
	c0,10.5-3,20.2-9,28.4l-3,5.2L695.7,162.8z"/>
<path fill="#FFFFFF" d="M564.3,441.3c0-9.7-3-18.7-7.5-26.1l15.7-15.7l-16.4-16.4l-15.7,15.7c-4.5-3-9.7-5.2-14.9-6v-21.7h-23.1
	v21.7c-5.2,1.5-10.5,3.7-14.9,6l-15.7-15.7l-16.4,16.4l15.7,15.7c-4.5,7.5-7.5,16.4-7.5,26.1s3,18.7,7.5,26.9l-15.7,15.7l16.4,16.4
	l16.4-16.4c4.5,3,9,4.5,14.2,6V513h23.1v-22.4c5.2-1.5,9.7-3,14.2-6l16.4,16.4l16.4-16.4l-15.7-16.4
	C561.3,460.7,564.3,451,564.3,441.3z M513.5,463c-11.9,0-20.9-9.7-20.9-20.9c0-11.2,9.7-20.9,20.9-20.9c11.2,0,20.9,9.7,20.9,20.9
	C534.4,453.3,525.5,463,513.5,463z"/>
<path fill="#FFFFFF" d="M426.2,387.6c0-9.7-3-18.7-7.5-26.1l15.7-15.7l-16.4-16.4L402.3,345c-4.5-3-9.7-5.2-14.9-6v-21.7h-23.1V339
	c-5.2,1.5-10.5,3.7-14.9,6l-15.7-15.7l-16.4,16.4l15.7,15.7c-4.5,7.5-7.5,16.4-7.5,26.1c0,9.7,3,18.7,7.5,26.9l-15.7,15.7l16.4,16.4
	l16.4-16.4c4.5,3,9,4.5,14.2,6v23.1h23.1v-23.1c5.2-1.5,9.7-3,14.2-6l16.4,16.4l16.4-16.4l-15.7-15.7
	C423.2,406.2,426.2,397.3,426.2,387.6z M375.4,408.5c-11.9,0-20.9-9.7-20.9-20.9s9.7-20.9,20.9-20.9c11.2,0,20.9,9.7,20.9,20.9
	S387.3,408.5,375.4,408.5z"/>
<path fill="#FFFFFF" d="M698.7,387.6c0-9.7-3-18.7-7.5-26.1l15.7-15.7l-16.4-16.4L674.8,345c-4.5-3-9.7-5.2-14.9-6v-21.7h-23.1V339
	c-5.2,1.5-10.5,3.7-14.9,6l-15.7-15.7l-16.4,16.4l15.7,15.7c-4.5,7.5-7.5,16.4-7.5,26.1c0,9.7,3,18.7,7.5,26.9l-15.7,15.7l16.4,16.4
	l16.4-16.4c4.5,3,9,4.5,14.2,6v23.1h23.1v-23.1c5.2-1.5,9.7-3,14.2-6l16.4,16.4l16.4-16.4l-15.7-15.7
	C696.5,406.2,698.7,397.3,698.7,387.6z M648.7,408.5c-11.9,0-20.9-9.7-20.9-20.9s9.7-20.9,20.9-20.9c11.9,0,20.9,9.7,20.9,20.9
	S660.6,408.5,648.7,408.5z"/>
</svg>
