<?xml version="1.0" encoding="utf-8"?>
<!-- Generator: Adobe Illustrator 17.1.0, SVG Export Plug-In . SVG Version: 6.00 Build 0)  -->
<!DOCTYPE svg PUBLIC "-//W3C//DTD SVG 1.1//EN" "http://www.w3.org/Graphics/SVG/1.1/DTD/svg11.dtd">
<svg version="1.1" id="Layer_1" xmlns="http://www.w3.org/2000/svg" xmlns:xlink="http://www.w3.org/1999/xlink" x="0px" y="0px"
	 viewBox="0 0 980 513" width="50px" enable-background="new 0 0 980 513" xml:space="preserve">
<path fill="#FFFFFF" d="M723.6,128.1c0-37.4-30.5-67.1-67.1-67.1c-4.6,0-8.4,0.8-13,1.5C610.8,22.9,562.8,0,511,0
	C453,0,399.7,28.2,367.7,75.5l6.1,4.6l-6.1-4.6c-9.1,13-16,27.4-21.3,42.7c-32.8,1.5-63.3,20.6-78.5,49.5
	c-7.6,13.7-11.4,29-11.4,44.2c0,51.8,42.7,94.5,94.5,94.5c13.7,0,27.4-3,40.4-9.1c32,31.3,74.7,48,119.7,48
	c72.4,0,136.4-45,161.6-112.1c1.5,0,3,0,4.6,0c25.9,0,46.5-20.6,46.5-46.5c0-9.1-3-19.1-8.4-26.7
	C720.6,150.9,723.6,139.5,723.6,128.1z M700,166.2c5.3,6.1,8.4,13,8.4,20.6c0,17.5-13.7,31.3-31.3,31.3c-2.3,0-4.6,0-7.6-0.8
	l-6.9-1.5l-2.3,6.9c-21.3,64.8-81.6,108.2-150.2,108.2c-42.7,0-82.3-16.8-112.8-47.3l-3.8-3.8l-5.3,3c-11.4,6.1-24.4,9.9-38.1,9.9
	c-43.4,0-79.3-35.8-79.3-79.3c0-13,3-25.9,9.1-37.4c13.7-25.9,40.4-41.9,69.4-41.9l0,0c0.8,0,0.8,0,1.5,0l5.3-0.8l2.3-6.1l-7.6-2.3
	l0,0l7.6,2.3c4.6-13.7,10.7-27.4,18.3-39.6h1.5v-2.3c0-0.8,0.8-0.8,0.8-1.5c29.7-43.4,78.5-68.6,130.3-68.6
	c48.8,0,93.8,22.1,124.2,60.2l3,3.8l4.6-1.5c4.6-1.5,9.1-2.3,13.7-2.3c29,0,51.8,23.6,51.8,51.8c0,10.7-3,20.6-9.1,29l-3,5.3
	L700,166.2z"/>
<g>
	<path fill="#FFFFFF" d="M379.1,407c-19.1,0-34.3-15.2-34.3-34.3s15.2-34.3,34.3-34.3s34.3,15.2,34.3,34.3S398.1,407,379.1,407z
		 M379.1,353.7c-10.7,0-19.1,8.4-19.1,19.1c0,10.7,8.4,19.1,19.1,19.1s19.1-8.4,19.1-19.1S389.8,353.7,379.1,353.7z"/>
</g>
<g>
	<path fill="#FFFFFF" d="M433.2,513c-19.1,0-34.3-15.2-34.3-34.3s15.2-34.3,34.3-34.3c19.1,0,34.3,15.2,34.3,34.3
		S452.3,513,433.2,513z M433.2,458.9c-10.7,0-19.1,8.4-19.1,19.1s8.4,19.1,19.1,19.1c10.7,0,19.1-8.4,19.1-19.1
		S443.9,458.9,433.2,458.9z"/>
</g>
<g>
	<path fill="#FFFFFF" d="M513.2,434.5c-19.1,0-34.3-15.2-34.3-34.3s15.2-34.3,34.3-34.3s34.3,15.2,34.3,34.3
		C548.3,418.5,532.3,434.5,513.2,434.5z M513.2,380.4c-10.7,0-19.1,8.4-19.1,19.1s8.4,19.1,19.1,19.1s19.1-8.4,19.1-19.1
		S523.9,380.4,513.2,380.4z"/>
</g>
<g>
	<path fill="#FFFFFF" d="M649.7,407c-19.1,0-34.3-15.2-34.3-34.3s15.2-34.3,34.3-34.3s34.3,15.2,34.3,34.3S668.7,407,649.7,407z
		 M649.7,353.7c-10.7,0-19.1,8.4-19.1,19.1c0,10.7,8.4,19.1,19.1,19.1s19.1-8.4,19.1-19.1S660.4,353.7,649.7,353.7z"/>
</g>
<g>
	<path fill="#FFFFFF" d="M595.6,513c-19.1,0-34.3-15.2-34.3-34.3s15.2-34.3,34.3-34.3c19.1,0,34.3,15.2,34.3,34.3
		C629.9,497,614.6,513,595.6,513z M595.6,458.9c-10.7,0-19.1,8.4-19.1,19.1s8.4,19.1,19.1,19.1s19.1-8.4,19.1-19.1
		S606.2,458.9,595.6,458.9z"/>
</g>
</svg>
