<?xml version="1.0" encoding="utf-8"?>
<!-- Generator: Adobe Illustrator 17.1.0, SVG Export Plug-In . SVG Version: 6.00 Build 0)  -->
<!DOCTYPE svg PUBLIC "-//W3C//DTD SVG 1.1//EN" "http://www.w3.org/Graphics/SVG/1.1/DTD/svg11.dtd">
<svg version="1.1" id="Laag_1" xmlns="http://www.w3.org/2000/svg" xmlns:xlink="http://www.w3.org/1999/xlink" x="0px" y="0px"
	 width='150px' viewBox="0 0 143.9 150" enable-background="new 0 0 143.9 150" xml:space="preserve">
<path fill="#FFFFFF" d="M118.5,38.9c-2.4,0-4.8,0.4-7,1.1c-3.3-10.2-12.8-17-23.7-17c-5.4,0-10.4,1.7-14.6,4.8
	C67.8,24.6,61.9,23,55.8,23C37,23,21.4,38.3,21.4,57.4c0,3,0.4,5.7,1.1,8.3C9.8,66.8,0,77.5,0,90.5c0,13.7,11.1,25,25,25
	c3.7,0,7.6-0.9,10.9-2.6c3.7,9.6,12.8,16.1,23.3,16.1c8.5,0,16.4-4.4,21.1-11.6c2.6,0.6,5.2,0.9,7.6,0.9c17.4,0,31.6-12.9,34-29.6
	c12.4-1.5,22-12,22-24.6C143.3,50.2,132.2,38.9,118.5,38.9z M87.4,113.7c-2.6,0-5.4-0.4-8.1-1.1c-0.9-0.4-2,0.2-2.6,1.1
	c-3.5,6.6-10.5,10.7-18.1,10.7c-9.4,0-17.6-6.3-20-15.5c-0.2-0.7-0.7-1.3-1.3-1.5c0-0.2-0.2-0.2-0.6-0.2s-0.7,0.2-1.1,0.4
	c-3.3,2-7,3.2-10.9,3.2c-11.3,0-20.5-9.2-20.5-20.5c0-11.1,8.7-20,19.6-20.5c0.4,0,0.6,0,0.9,0c1.3,0,2.8,0.2,4.1,0.4
	c1.3,0.2,2.4,0.6,3.7,1.1c0.6,0.2,1.3,0.2,1.8,0c0.6-0.4,0.9-0.7,1.1-1.5c2-9.4,10.4-15.9,20-15.9c4.8,0,9.4,1.7,13.1,4.8
	c0.7,0.6,1.8,0.7,2.6,0.2c4.8-3.2,10.5-5,16.4-5c16.4,0,29.9,13.5,29.9,29.9c0,0.2,0,0.4,0,0.6c0,1.5-0.2,3-0.4,4.2
	C114.6,102.8,102.2,113.7,87.4,113.7z M121.7,84c0-0.2,0-0.2,0-0.4c0-18.9-15.3-34.4-34.4-34.4c-6.1,0-12.2,1.7-17.4,4.8
	c-4.2-3.2-9.4-4.8-14.6-4.8c-10.9,0-20.3,6.8-23.7,17c-1.7-0.6-3.2-0.7-4.8-0.9c-0.7-2.6-1.3-5.4-1.3-8.3
	c0-16.4,13.5-29.9,29.9-29.9c5.9,0,11.5,1.7,16.4,5c0.7,0.6,1.8,0.6,2.6-0.2c3.7-3.2,8.3-4.8,13.1-4.8c9.6,0,17.9,6.6,20,15.9
	c0.2,0.6,0.6,1.1,1.1,1.5c0.6,0.4,1.3,0.4,1.8,0c2.4-0.9,5-1.5,7.8-1.5c11.3,0,20.5,9.2,20.5,20.5C139,74,131.4,82.5,121.7,84z"/>
</svg>
