<?xml version="1.0" encoding="utf-8"?>
<!-- Generator: Adobe Illustrator 17.1.0, SVG Export Plug-In . SVG Version: 6.00 Build 0)  -->
<!DOCTYPE svg PUBLIC "-//W3C//DTD SVG 1.1//EN" "http://www.w3.org/Graphics/SVG/1.1/DTD/svg11.dtd">
<svg version="1.1" id="Laag_1" xmlns="http://www.w3.org/2000/svg" xmlns:xlink="http://www.w3.org/1999/xlink" x="0px" y="0px"
	 width='150px' viewBox="0 0 143.9 150" enable-background="new 0 0 143.9 150" xml:space="preserve">
<g>
	<rect x="0" y="57.2" fill="#FFFFFF" width="48.4" height="3.6"/>
</g>
<path fill="#FFFFFF" d="M143.7,65.2c0-8.9-7.2-16-16-16c-1.1,0-2,0.2-3.1,0.4c-7.8-9.4-19.2-14.9-31.5-14.9
	c-13.6,0-26.3,6.7-33.9,17.9l1.5,1.1l-1.5-1.1c-2.2,3.1-3.8,6.5-5.1,10.1c-7.8,0.4-15,4.9-18.7,11.8c-1.8,3.3-2.7,6.9-2.7,10.5
	c0,12.3,10.1,22.5,22.5,22.5c3.3,0,6.5-0.7,9.6-2.2c7.6,7.4,17.8,11.4,28.4,11.4c17.2,0,32.4-10.7,38.4-26.6c0.4,0,0.7,0,1.1,0
	c6.2,0,11.1-4.9,11.1-11.1c0-2.2-0.7-4.5-2-6.3C143.1,70.6,143.7,67.9,143.7,65.2z M138.2,74.4c1.3,1.5,2,3.1,2,4.9
	c0,4.2-3.3,7.4-7.4,7.4c-0.5,0-1.1,0-1.8-0.2l-1.6-0.4l-0.5,1.6c-5.3,15.2-19.6,25.6-35.7,25.6c-10.1,0-19.6-4-26.8-11.2l-0.9-0.9
	l-1.3,0.5c-2.7,1.5-5.8,2.3-9.1,2.3c-10.3,0-18.9-8.5-18.9-18.9c0-3.1,0.7-6.2,2.2-8.9c3.3-6.2,9.6-10,16.5-10l0,0
	c0.2,0,0.2,0,0.4,0l1.3-0.2l0.5-1.5l-1.8-0.5l0,0l1.8,0.5c1.1-3.3,2.5-6.5,4.4-9.4h0.4v-0.5c0-0.2,0.2-0.2,0.2-0.4l0,0
	c7.1-10.3,18.7-16.3,31-16.3c11.6,0,22.3,5.3,29.5,14.3l0.7,0.9l1.1-0.4c1.1-0.4,2.2-0.5,3.3-0.5c6.9,0,12.3,5.6,12.3,12.3
	c0,2.5-0.7,4.9-2.2,6.9l-0.7,1.3L138.2,74.4z"/>
<g>
	<rect x="0" y="46.5" fill="#FFFFFF" width="53.4" height="3.6"/>
</g>
<g>
	<rect x="0" y="68.3" fill="#FFFFFF" width="29.9" height="3.6"/>
</g>
</svg>
