<?xml version="1.0" encoding="utf-8"?>
<!-- Generator: Adobe Illustrator 17.1.0, SVG Export Plug-In . SVG Version: 6.00 Build 0)  -->
<!DOCTYPE svg PUBLIC "-//W3C//DTD SVG 1.1//EN" "http://www.w3.org/Graphics/SVG/1.1/DTD/svg11.dtd">
<svg version="1.1" id="Laag_1" xmlns="http://www.w3.org/2000/svg" xmlns:xlink="http://www.w3.org/1999/xlink" x="0px" y="0px"
	 width='150px' viewBox="0 0 143.9 150" enable-background="new 0 0 143.9 150" xml:space="preserve">
<g>
	<path fill="#FFFFFF" d="M76.7,116.1l-1.9,2.8c-1.4,2.1-8.2,12.7-8.2,17.6c0,5.6,4.7,10.3,10.3,10.3c5.6,0,10.3-4.7,10.3-10.3
		c0-4.9-7.1-15.5-8.2-17.6L76.7,116.1z M76.7,142.1c-3,0-5.4-2.6-5.4-5.6c0-2.1,2.8-7.5,5.6-11.7c2.8,4.4,5.6,9.8,5.6,11.7
		C82.4,139.5,79.8,142.1,76.7,142.1z"/>
	<path fill="#FFFFFF" d="M143.9,42.1c0-11.5-9.4-20.6-20.6-20.6c-1.4,0-2.6,0.2-4,0.5C108.9,9.8,94.1,2.7,78.1,2.7
		c-22.8,0-43.4,14.8-50.4,36.4C12.2,39.8,0,52.5,0,68.2c0,15.9,13.1,29.1,29.1,29.1c4.2,0,8.4-1,12.4-2.8c9.8,9.6,23,14.8,36.8,14.8
		c22.3,0,42-13.8,49.7-34.5c0.5,0,1,0,1.4,0c8,0,14.3-6.3,14.3-14.3c0-2.8-1-5.9-2.6-8.2C142.9,49.2,143.9,45.7,143.9,42.1z
		 M136.6,53.9c1.7,1.9,2.6,4,2.6,6.3c0,5.4-4.2,9.6-9.6,9.6c-0.7,0-1.4,0-2.4-0.2l-2.1-0.5l-0.7,2.1c-6.6,19.9-25.1,33.3-46,33.3
		c-13.1,0-25.3-5.2-34.7-14.5l-1.2-1.2l-1.7,0.7c-3.5,1.9-7.5,3-11.7,3c-13.4,0-24.4-11-24.4-24.4s11-24.4,24.4-24.4l0,0h2.1
		l0.5-1.7C37.8,21.7,56.8,7.4,78.2,7.4c15,0,28.9,6.8,38.2,18.5l1,1.2l1.4-0.5c1.4-0.5,2.8-0.7,4.2-0.7c8.9,0,15.9,7.3,15.9,15.9
		c0,3.3-1,6.3-2.8,8.9l-1,1.7L136.6,53.9z"/>
</g>
</svg>
