<?xml version="1.0" encoding="utf-8"?>
<!-- Generator: Adobe Illustrator 17.1.0, SVG Export Plug-In . SVG Version: 6.00 Build 0)  -->
<!DOCTYPE svg PUBLIC "-//W3C//DTD SVG 1.1//EN" "http://www.w3.org/Graphics/SVG/1.1/DTD/svg11.dtd">
<svg version="1.1" id="Layer_1" xmlns="http://www.w3.org/2000/svg" xmlns:xlink="http://www.w3.org/1999/xlink" x="0px" y="0px"
	 viewBox="0 0 980 513" width="50px" enable-background="new 0 0 980 513" xml:space="preserve">
<g>
	<rect x="418.3" y="0" fill="#FFFFFF" width="13.3" height="49.3"/>
</g>
<g>
	
		<rect x="318.5" y="52.2" transform="matrix(0.7071 0.7071 -0.7071 0.7071 142.1124 -225.399)" fill="#FFFFFF" width="49.3" height="13.3"/>
</g>
<g>
	
		<rect x="500.1" y="34" transform="matrix(0.7071 0.7071 -0.7071 0.7071 189.9412 -341.1609)" fill="#FFFFFF" width="13.3" height="49.3"/>
</g>
<g>
	<rect x="284.3" y="140.7" fill="#FFFFFF" width="49.3" height="13.3"/>
</g>
<path fill="#FFFFFF" d="M695.7,218c0-32.7-26.7-58.7-58.7-58.7c-4,0-7.3,0.7-11.3,1.3C597,126,555,106,509.7,106
	c-4.7,0-9.3,0-13.3,0.7c-14-24.7-40.7-41.3-71.3-41.3c-44.7,0-81.3,36-82,81.3l0,0c0,0,0,0,0,0.7v0.7l0,0c0,22.7,10,42.7,24.7,57.3
	c-0.7,1.3-1.3,2.7-2,4.7c-44,2-78.7,38-78.7,82.7c0,45.3,37.3,82.7,82.7,82.7c12,0,24-2.7,35.3-8c28,27.3,65.3,42,104.7,42
	c63.3,0,119.3-39.3,141.3-98c1.3,0,2.7,0,4,0c22.7,0,40.7-18,40.7-40.7c0-8-2.7-16.7-7.3-23.3C693,238,695.7,228,695.7,218z
	 M356.3,146.7c0-37.3,30.7-68,68.7-68c23.3,0,44.7,12,56.7,30c-46.7,8.7-87.3,40-108,82.7C363,179.3,356.3,164,356.3,146.7z
	 M675.7,252c4.7,5.3,7.3,11.3,7.3,18c0,15.3-12,27.3-27.3,27.3c-2,0-4,0-6.7-0.7l-6-1.3l-2.7,5.3c-18.7,56.7-71.3,94.7-130.7,94.7
	c-37.3,0-72-14.7-98.7-41.3l-3.3-3.3l-4.7,2.7c-10,5.3-21.3,8.7-33.3,8.7c-38,0-69.3-31.3-69.3-69.3s31.3-70,70-70l0,0h6l1.3-4.7
	c0.7-1.3,0.7-2.7,1.3-4c1.3-4.7,3.3-8.7,4.7-12.7c19.3-42.7,58.7-72.7,104.7-80c4.7-0.7,9.3-1.3,14-1.3c2.7,0,5.3,0,7.3,0
	c42.7,0,82,19.3,108.7,52.7l2.7,3.3l4-1.3c30-8,57.3,14.7,57.3,44c0,9.3-2.7,18-8,25.3l-2.7,4L675.7,252z"/>
<path fill="#FFFFFF" d="M488.5,425.7l-5.3,8c-4,6-23.3,36-23.3,50c0,16,13.3,29.3,29.3,29.3c16,0,29.3-13.3,29.3-29.3
	c0-14-20-44-23.3-50L488.5,425.7z M488.5,499.7c-8.7,0-15.3-7.3-15.3-16c0-6,8-21.3,16-33.3c8,12.7,16,28,16,33.3
	C504.5,492.3,497.2,499.7,488.5,499.7z"/>
<path fill="#FFFFFF" d="M421.8,425.7l-5.3,8c-4,6-23.3,36-23.3,50c0,16,13.3,29.3,29.3,29.3c16,0,29.3-13.3,29.3-29.3
	c0-14-20-44-23.3-50L421.8,425.7z M421.8,499.7c-8.7,0-15.3-7.3-15.3-16c0-6,8-21.3,16-33.3c8,12.7,16,28,16,33.3
	C437.8,492.3,430.5,499.7,421.8,499.7z"/>
<path fill="#FFFFFF" d="M555.2,425.7l-5.3,8c-4,6-23.3,36-23.3,50c0,16,13.3,29.3,29.3,29.3s29.3-13.3,29.3-29.3c0-14-20-44-23.3-50
	L555.2,425.7z M555.2,499.7c-8.7,0-15.3-7.3-15.3-16c0-6,8-21.3,16-33.3c8,12.7,16,28,16,33.3C571.2,492.3,563.8,499.7,555.2,499.7z
	"/>
</svg>
