<?xml version="1.0" encoding="utf-8"?>
<!-- Generator: Adobe Illustrator 17.1.0, SVG Export Plug-In . SVG Version: 6.00 Build 0)  -->
<!DOCTYPE svg PUBLIC "-//W3C//DTD SVG 1.1//EN" "http://www.w3.org/Graphics/SVG/1.1/DTD/svg11.dtd">
<svg version="1.1" id="Laag_1" xmlns="http://www.w3.org/2000/svg" xmlns:xlink="http://www.w3.org/1999/xlink" x="0px" y="0px"
	 width='150px' viewBox="0 0 143.9 150" enable-background="new 0 0 143.9 150" xml:space="preserve">
<g>
	<rect x="51.7" y="0" fill="#FFFFFF" width="3.9" height="14.4"/>
</g>
<g>
	
		<rect x="22.6" y="15.3" transform="matrix(-0.7071 -0.7071 0.7071 -0.7071 38.649 50.4272)" fill="#FFFFFF" width="14.4" height="3.9"/>
</g>
<g>
	
		<rect x="75.7" y="9.9" transform="matrix(-0.7071 -0.7071 0.7071 -0.7071 120.3823 84.1526)" fill="#FFFFFF" width="3.9" height="14.4"/>
</g>
<g>
	<rect x="12.6" y="41.1" fill="#FFFFFF" width="14.4" height="3.9"/>
</g>
<path fill="#FFFFFF" d="M132.9,63.7c0-9.6-7.8-17.2-17.2-17.2c-1.2,0-2.1,0.2-3.3,0.4C104,36.8,91.7,31,78.5,31
	c-1.4,0-2.7,0-3.9,0.2C70.5,24,62.7,19.1,53.7,19.1c-13.1,0-23.8,10.5-24,23.8l0,0c0,0,0,0,0,0.2v0.2l0,0c0,6.6,2.9,12.5,7.2,16.8
	c-0.2,0.4-0.4,0.8-0.6,1.4c-12.9,0.6-23,11.1-23,24.2c0,13.2,10.9,24.2,24.2,24.2c3.5,0,7-0.8,10.3-2.3c8.2,8,19.1,12.3,30.6,12.3
	c18.5,0,34.9-11.5,41.3-28.7c0.4,0,0.8,0,1.2,0c6.6,0,11.9-5.3,11.9-11.9c0-2.3-0.8-4.9-2.1-6.8C132.1,69.6,132.9,66.7,132.9,63.7z
	 M33.6,42.9c0-10.9,9-19.9,20.1-19.9c6.8,0,13.1,3.5,16.6,8.8C56.6,34.3,44.8,43.5,38.7,56C35.6,52.4,33.6,48,33.6,42.9z M127,73.7
	c1.4,1.5,2.1,3.3,2.1,5.3c0,4.5-3.5,8-8,8c-0.6,0-1.2,0-2-0.2l-1.8-0.4l-0.8,1.5c-5.5,16.6-20.8,27.7-38.2,27.7
	c-10.9,0-21.1-4.3-28.9-12.1l-1-1l-1.4,0.8c-2.9,1.5-6.2,2.5-9.7,2.5c-11.1,0-20.3-9.2-20.3-20.3s9.2-20.5,20.5-20.5l0,0h1.8
	l0.4-1.4c0.2-0.4,0.2-0.8,0.4-1.2c0.4-1.4,1-2.5,1.4-3.7c5.6-12.5,17.2-21.3,30.6-23.4c1.4-0.2,2.7-0.4,4.1-0.4c0.8,0,1.5,0,2.1,0
	c12.5,0,24,5.6,31.8,15.4l0.8,1l1.2-0.4c8.8-2.3,16.8,4.3,16.8,12.9c0,2.7-0.8,5.3-2.3,7.4l-0.8,1.2L127,73.7z"/>
<path fill="#FFFFFF" d="M72.3,124.5l-1.5,2.3c-1.2,1.8-6.8,10.5-6.8,14.6c0,4.7,3.9,8.6,8.6,8.6c4.7,0,8.6-3.9,8.6-8.6
	c0-4.1-5.8-12.9-6.8-14.6L72.3,124.5z M72.3,146.1c-2.5,0-4.5-2.1-4.5-4.7c0-1.8,2.3-6.2,4.7-9.7c2.3,3.7,4.7,8.2,4.7,9.7
	C76.9,143.9,74.8,146.1,72.3,146.1z"/>
<path fill="#FFFFFF" d="M52.8,124.5l-1.5,2.3c-1.2,1.8-6.8,10.5-6.8,14.6c0,4.7,3.9,8.6,8.6,8.6s8.6-3.9,8.6-8.6
	c0-4.1-5.8-12.9-6.8-14.6L52.8,124.5z M52.8,146.1c-2.5,0-4.5-2.1-4.5-4.7c0-1.8,2.3-6.2,4.7-9.7c2.3,3.7,4.7,8.2,4.7,9.7
	C57.4,143.9,55.3,146.1,52.8,146.1z"/>
<path fill="#FFFFFF" d="M91.8,124.5l-1.5,2.3c-1.2,1.8-6.8,10.5-6.8,14.6c0,4.7,3.9,8.6,8.6,8.6c4.7,0,8.6-3.9,8.6-8.6
	c0-4.1-5.8-12.9-6.8-14.6L91.8,124.5z M91.8,146.1c-2.5,0-4.5-2.1-4.5-4.7c0-1.8,2.3-6.2,4.7-9.7c2.3,3.7,4.7,8.2,4.7,9.7
	C96.5,143.9,94.3,146.1,91.8,146.1z"/>
</svg>
