<?xml version="1.0" encoding="utf-8"?>
<!-- Generator: Adobe Illustrator 17.1.0, SVG Export Plug-In . SVG Version: 6.00 Build 0)  -->
<!DOCTYPE svg PUBLIC "-//W3C//DTD SVG 1.1//EN" "http://www.w3.org/Graphics/SVG/1.1/DTD/svg11.dtd">
<svg version="1.1" id="Laag_1" xmlns="http://www.w3.org/2000/svg" xmlns:xlink="http://www.w3.org/1999/xlink" x="0px" y="0px"
	 width='150px' viewBox="0 0 143.9 150" enable-background="new 0 0 143.9 150" xml:space="preserve">
<g>
	<path fill="#FFFFFF" d="M3.7,56.4H72c0.4,0,0.8,0.1,1.3,0.1c8.7,0,15.7-7,15.7-15.7s-7-15.7-15.6-15.7c-8.7,0-15.7,7-15.7,15.7
		c0,3,0.9,5.8,2.3,8.2H3.7c-2,0-3.7,1.6-3.7,3.7C0,54.7,1.6,56.4,3.7,56.4z"/>
	<path fill="#FFFFFF" d="M93.9,94.3c-0.1,0-0.2-0.1-0.3-0.1H6c-2,0-3.7,1.6-3.7,3.7c0,2,1.6,3.7,3.7,3.7h74
		c-1.5,2.4-2.4,5.3-2.4,8.3c0,8.7,7,15.7,15.7,15.7s15.7-7,15.7-15.7C109,101.4,102.3,94.6,93.9,94.3z"/>
	<path fill="#FFFFFF" d="M143.9,64.7c0-8.7-7-15.7-15.7-15.7s-15.7,7-15.7,15.7c0,3,0.9,5.9,2.4,8.3H4c-2,0-3.7,1.6-3.7,3.7
		c0,2,1.6,3.7,3.7,3.7h124.5c0.1,0,0.2-0.1,0.3-0.1C137.2,80,143.9,73.1,143.9,64.7z"/>
</g>
</svg>
