<?xml version="1.0" encoding="utf-8"?>
<!-- Generator: Adobe Illustrator 17.1.0, SVG Export Plug-In . SVG Version: 6.00 Build 0)  -->
<!DOCTYPE svg PUBLIC "-//W3C//DTD SVG 1.1//EN" "http://www.w3.org/Graphics/SVG/1.1/DTD/svg11.dtd">
<svg version="1.1" id="Laag_1" xmlns="http://www.w3.org/2000/svg" xmlns:xlink="http://www.w3.org/1999/xlink" x="0px" y="0px"
	 viewBox="0 0 115.9 30.8" enable-background="new 0 0 115.9 30.8" xml:space="preserve">
<g>
	<g>
		<polygon fill="#FFFFFF" points="3.6,0 0.2,9.2 13.9,9.2 5.7,30.7 15.3,30.7 27,0 		"/>
		<polygon fill="#FFFFFF" points="36.3,0 30.2,0 26.9,9.2 36.3,9.2 		"/>
		<g>
			<path fill="#FFFFFF" d="M115.9,15.4h-9v6.3c0,0,0,0,0,0c-3.5,0-6.3-2.8-6.3-6.3c0-3.5,2.8-6.3,6.3-6.3c0,0,0,0,0,0v0h9v-9
				c0,0-8.7,0-9,0c-8.5,0-15.3,6.9-15.3,15.3c0,8.5,6.9,15.3,15.3,15.3c0,0,0,0,0,0v0h9V15.4z"/>
			<polygon fill="#FFFFFF" points="82.1,0 73,0 61.7,30.7 71.1,30.7 77.5,13.5 84,30.7 93.4,30.7 			"/>
			<path fill="#FFFFFF" d="M48.2,0.1c-0.3,0-9,0-9,0v9.1l9,0c0,0,0,0,0,0c3.5,0,6.3,2.8,6.3,6.3c0,3.5-2.8,6.3-6.3,6.3c0,0,0,0,0,0
				l-9,0v9.1h9v0c0,0,0,0,0,0c8.5,0,15.3-6.9,15.3-15.3C63.6,6.9,56.7,0.1,48.2,0.1"/>
		</g>
	</g>
</g>
</svg>
