<?xml version="1.0" encoding="utf-8"?>
<!-- Generator: Adobe Illustrator 17.1.0, SVG Export Plug-In . SVG Version: 6.00 Build 0)  -->
<!DOCTYPE svg PUBLIC "-//W3C//DTD SVG 1.1//EN" "http://www.w3.org/Graphics/SVG/1.1/DTD/svg11.dtd">
<svg version="1.1" id="Laag_1" xmlns="http://www.w3.org/2000/svg" xmlns:xlink="http://www.w3.org/1999/xlink" x="0px" y="0px"
	  width="65px" viewBox="0 0 551 550" enable-background="new 0 0 551 550" xml:space="preserve">
<g>
	<path fill="#FFFFFF" d="M298.8,290.4c0.6,1.7,1.1,3.3,2.2,5c1.1,1.6,2.2,3.3,3.3,4.4c1.7,1.1,2.8,2.2,4.4,3.3
		c1.1,1.1,3.3,2.2,5,2.8c1.6,0.5,3.8,1.1,6,1.7s4.4,0.5,7.2,0.5s4.9,0,7.1-0.6c2.2-0.5,4.4-1.1,6-1.6s3.3-1.7,5-2.8
		c1.6-1.1,3.3-2.2,4.4-3.3c1.1-1.7,2.2-2.8,3.3-4.4c0.5-1.7,1.7-3.3,2.2-5c1.1-1.6,1.1-3.8,1.7-5.5c0.5-1.6,0.5-3.8,0.5-5.5
		c0-1.6,0-3.8-0.5-5.5c-0.6-2.2-1.1-3.8-1.7-5.5s-1.1-3.3-2.2-5c-1.1-1.6-2.2-3.3-3.3-4.4c-1.7-1.1-2.8-2.2-4.4-3.3
		c-1.1-1.1-3.3-2.2-5-2.8c-1.6-0.5-3.8-1.1-6-1.7s-4.4-0.5-7.1-0.5s-5,0-7.2,0.5s-4.4,1.1-6,1.7c-1.7,0.5-3.3,1.6-5,2.8
		c-1.7,1.1-3.3,2.2-4.4,3.3c-1.1,1.6-2.2,2.8-3.3,4.4c-0.5,1.7-1.6,3.3-2.2,5c-1.1,1.7-1.1,3.9-1.6,5.5c0,1.7-0.5,3.9-0.5,5.5
		c0,1.6,0,3.8,0.5,5.5C297.7,287.1,298.2,288.8,298.8,290.4z M307.6,279.4c0-1.6,0-2.8,0-3.8s0-2.2,0.5-3.3s1.1-2.2,1.6-3.3
		c0.6-1.1,1.7-2.2,2.2-3.3c1.1-1.1,1.7-2.2,2.8-2.8c1.1-1.1,2.2-1.7,3.3-2.2c1.7-0.6,2.8-0.6,4.4-1.1s3.3-0.5,5-0.5s3.3,0,5,0.5
		c1.6,0,3.3,0.6,4.4,1.1c1.1,0.5,2.2,1.7,3.3,2.2c1.1,1.1,2.2,1.6,2.8,2.8c1.1,1.1,1.7,2.2,2.2,3.3c1.1,1.1,1.1,2.2,1.7,3.3
		c0,1.1,0.5,2.2,0.5,3.3c0,1.6,0,2.8,0,3.8c0,1.7,0,2.8,0,3.9c0,1.1,0,2.2-0.5,3.3c-0.5,1.1-1.1,2.2-1.7,3.3
		c-0.5,1.1-1.6,2.2-2.2,3.3c-1.1,1.1-1.6,2.2-2.8,2.8c-1.1,1.1-2.2,1.7-3.3,2.2c-1.6,0.5-2.8,0.5-4.4,1.1c-1.7,0.5-3.3,0.5-5,0.5
		c-1.7,0-3.3,0-5-0.5c-1.7,0-3.3-0.5-4.4-1.1c-1.1-0.5-2.2-1.7-3.3-2.2c-1.1-1.1-2.2-1.7-2.8-2.8c-1.1-1.1-1.6-2.2-2.2-3.3
		c-1.1-1.1-1.1-2.2-1.6-3.3c0-1.1-0.5-2.2-0.5-3.3C307.6,281.6,307.6,280.5,307.6,279.4z"/>
	<rect x="264.1" y="233.2" fill="#FFFFFF" width="9.9" height="11"/>
	<rect x="264.1" y="253" fill="#FFFFFF" width="9.9" height="53.3"/>
	<path fill="#FFFFFF" d="M22.7,166.6c1.6-3.6,3.2-7.1,4.9-10.6C25.8,159.5,24.2,163,22.7,166.6z"/>
	<path fill="#FFFFFF" d="M20.5,171.7c0.5-1.2,1-2.4,1.5-3.6C21.5,169.4,21,170.5,20.5,171.7z"/>
	<path fill="#FFFFFF" d="M179.4,292c0.5,1.7,1.7,3.3,2.8,5c0.5,1.1,2.2,2.8,3.3,3.8c1.7,1.1,2.8,2.2,4.4,3.3c1.6,0.6,3.3,1.7,5,2.2
		c1.6,1.1,3.8,1.1,5.5,1.7c2.2,0.5,3.8,0.5,6,0.5c0.5,0,1.6,0,2.8,0c0.5,0,1.6-0.5,2.8-0.5c1.1,0,1.6-0.5,2.8-0.5
		c1.1-0.6,1.6-0.6,2.8-1.1c1.1,0,1.6-0.5,2.8-1.1c0.5-0.5,1.6-1.1,2.2-1.7c1.1-0.5,1.6-1.1,2.2-1.6c0.6-1.1,1.1-1.7,1.7-2.2v6.6
		h10.5v-73.7h-10.5v27.5c-0.5-1.1-1.1-1.7-1.7-2.2c-0.5-0.5-1.6-1.1-2.2-1.6c-0.6-0.6-1.7-1.1-2.2-1.7c-1.1-0.5-1.7-0.5-2.8-1.1
		c-1.1-0.6-1.7-1.1-2.8-1.1c-0.5,0-1.7-0.5-2.8-0.5c-0.5-0.5-1.7-0.5-2.8-0.5c-0.5,0-1.7,0-2.8,0c-2.2,0-4.4,0-6,0.5
		c-2.2,0.5-3.9,1.1-5.5,1.7c-1.7,0.5-3.3,1.1-5,2.2c-1.7,1.1-3.3,2.2-4.4,3.3c-1.1,1.1-2.2,2.2-3.3,3.8s-2.2,3.3-2.8,5
		c-0.5,1.6-1.1,3.3-1.7,5.5c-0.5,2.2-0.5,4.4-0.5,6.6c0,2.8,0,4.4,0.5,6.6C178.3,288.2,178.9,290.4,179.4,292z M188.2,275.5
		c0.5-1.1,0.5-2.8,1.1-3.9c0.5-1.1,1.1-2.2,1.6-3.3c0.5-1.1,1.1-1.6,2.2-2.8c0.5-0.5,1.7-1.7,2.8-2.2s2.2-1.1,3.3-1.6
		c1.1-0.6,2.8-1.1,3.9-1.1c1.6-0.5,2.8-0.5,4.4-0.5c1.7,0,3.3,0.5,4.4,0.5c1.1,0.6,2.8,0.6,3.8,1.1s2.2,1.1,3.3,1.6
		c1.1,0.6,1.7,1.1,2.8,2.2c0.6,0.5,1.7,1.7,2.2,2.8c0.5,1.1,1.1,2.2,2.8,3.3c0.6,1.1,1.1,2.8,1.1,3.9c0.5,1.6,0.5,2.8,0.5,4.4
		c0,1.7-0.5,2.8-0.5,3.9c-0.6,1.1-0.6,2.2-1.1,3.3c-0.5,1.1-1.1,2.2-1.6,3.3c-0.6,1.1-1.7,1.7-2.2,2.8s-1.7,2.2-2.8,2.8
		s-2.2,1.1-3.3,1.7c-1.1,0.5-2.2,0.5-3.9,1.1c-1.6,0.5-3.3,0.5-5,0.5c-1.6,0-3.3,0-4.9-0.5c-1.1,0-2.8-0.5-3.9-1.1
		c-1.1-0.6-2.2-1.1-3.3-1.7c-1.1-1.1-2.2-1.7-2.8-2.8c-1.1-0.5-1.7-1.7-2.2-2.8s-1.1-2.2-1.6-3.3c-0.6-1.1-1.1-2.2-1.1-3.3
		c-0.5-1.1-0.5-2.8-0.5-3.9C187.7,278.3,188.2,276.6,188.2,275.5z"/>
	<path fill="#FFFFFF" d="M415.3,39.5c-3.7-2.2-7.5-4.4-11.4-6.4c2.9,1.6,5.7,3.2,8.7,4.9C413.6,38.5,414.4,39,415.3,39.5z"/>
	<path fill="#FFFFFF" d="M98,299.8c0.5,1.1,1.6,2.2,2.2,2.8c0.5,0.5,1.6,1.7,2.8,2.2c1.1,0.5,2.2,1.1,3.8,1.6c1.7,0.6,3.3,1.1,5,1.1
		c1.6,0.5,3.8,0.5,6,0.5c1.1,0,2.2,0,3.3,0c1.1,0,2.2-0.5,3.3-0.5c1.1,0,2.2,0,3.3-0.5c1.1-0.6,2.2-0.6,3.3-1.1
		c1.1,0,1.6-0.5,2.8-1.1c1.1-0.5,2.2-1.1,2.8-1.7s1.6-1.1,2.2-1.6c0.5-1.1,1.1-1.7,1.6-2.2c0,1.1,0.5,1.7,0.5,2.2s0.6,1.1,0.6,1.6
		c0.5,0.6,0.5,0.6,1.1,1.1s0.5,0.5,1.1,1.1c0,0,0.5,0.5,1.1,0.5c0.5,0.5,1.1,0.5,1.7,0.5c0.5,0,1.1,0,1.6,0s1.1,0,1.7,0
		c0.5,0,0.5,0,1.1,0s0.5,0,1.1,0c0.5,0,0.5,0,1.1,0s0.5,0,1.1,0c0.5,0,0.5,0,1.1,0s0.5,0,1.1,0c0.5,0,0.5,0,1.1,0s0.5,0,1.1,0h1.1
		v-3.8c-0.5,0-0.5,0-0.5,0h-0.5H158h-0.6h-0.5h-0.5h-0.5h-0.6c-0.5,0-0.5,0-1.1,0s-0.5,0-1.1,0c0-0.5-0.5-0.5-0.5-0.5l-0.5-0.5
		l-0.5-0.5c-0.5,0-0.5,0-0.5-0.5c0-0.6,0-0.6,0-1.1s0-0.5,0-1.1v-28.6c0-1.6,0-3.3-0.6-4.4c-0.5-1.1-1.1-2.2-1.6-3.3
		c-1.1-1.1-1.7-2.2-2.8-2.8c-1.1-1.1-2.2-1.7-3.3-2.2c-1.1-0.5-2.8-1.1-3.9-1.7c-1.1-0.5-2.2-1.1-3.8-1.1c-1.7-0.5-2.8-0.5-4.4-0.5
		c-1.6,0-3.3,0-4.4,0c-1.7,0-3.9,0-5.5,0c-1.7,0-3.3,0-5,0.5c-1.7,0-3.3,0.5-4.4,1.1c-1.6,0-2.8,1.1-3.8,1.7
		c-1.1,1.1-1.7,1.6-2.8,2.8c-0.5,1.1-1.7,2.2-2.2,3.3c-0.5,1.1-1.1,2.2-1.7,3.8c-0.5,1.1-1.1,2.8-1.1,4.4h10.4
		c0-1.1,0.5-1.7,0.5-2.8c0.5-0.6,0.5-1.7,1.1-2.2c0.6-0.5,1.1-1.1,1.7-1.7s1.7-1.1,2.2-1.6c0.5-0.6,1.1-0.6,2.2-1.1
		c1.1,0,1.6-0.5,2.8-0.5c0.5-0.5,1.6-0.5,2.8-0.5c1.1,0,2.2,0,3.3,0c0.5,0,1.6,0,2.8,0c1.1,0,1.6,0,2.8,0c1.1,0,2.2,0.5,2.8,0.5
		s1.6,0,2.2,0.5c0.5,0.6,1.1,0.6,1.6,1.1s1.1,1.1,1.7,1.6c0.5,0.6,1.1,1.7,1.1,2.2c0.5,0.6,0.5,1.1,0.5,2.2c0,0.5,0,1.1,0,1.7
		s-0.5,0.5-0.5,1.1c0,0.6,0,0.6-0.5,1.1c-0.5,0-0.5,0.5-1.1,0.5c0,0-0.5,0.5-1.1,0.5c-0.5,0.5-1.1,0.5-1.7,0.5
		c-0.5,0.5-1.1,0.5-1.6,0.5s-1.7,0-2.2,0h-1.6h-1.7h-1.7h-1.6H125h-1.6h-1.7H120c-2.2,0.5-4.4,0.5-6,1.1c-1.7,0.6-3.3,0.6-5,1.1
		c-1.1,0.5-2.8,1.1-3.9,1.6c-1.6,0.5-2.2,1.1-3.3,1.7c-0.5,0.5-1.6,1.7-2.2,2.2c-0.5,1.1-1.1,1.6-1.6,2.8c-0.5,0.5-1.1,1.6-1.1,2.8
		c-0.5,1.1-0.5,2.2-0.5,3.3c0,1.1,0,1.6,0,2.8c0,1.1,0,1.6,0.5,2.8C96.9,298.1,97.5,298.6,98,299.8z M106.3,291.5c0-1.1,0-1.7,0-2.2
		s0.5-1.1,0.5-1.7c0.5,0,0.5-0.5,1.1-1.1c0-0.6,0.5-0.6,1.1-1.1s1.1-1.1,1.7-1.1c0.5,0,1.6-0.5,2.2-0.5c0.6,0,1.1-0.5,2.2-0.5
		c1.1-0.5,1.7-0.5,2.8-0.5l2.8-0.5h1.7h1.6h1.7h1.6h1.7h1.6c1.1,0,1.7,0,2.2,0c0.5-0.5,1.1-0.5,1.7-0.5c0.5-0.5,1.1-0.5,1.6-0.5
		c0.5-0.6,0.5-0.6,1.1-0.6c0.5-0.5,0.5-0.5,1.1-0.5s0.5-0.5,1.1-0.5c0.6,0,0.6,0,0-0.6l0.5-0.5v6.6c0,1.1,0,2.2-0.5,3.3
		c0,1.1-0.5,1.7-1.1,2.8c-0.5,1.1-1.6,2.2-2.2,2.8c-1.1,0.6-1.7,1.7-2.8,2.2c-1.1,0.5-2.2,1.1-3.3,1.7c-1.1,0.5-2.2,0.5-3.3,1.1
		c-1.1,0-2.8,0.5-3.8,0.5c-1.7,0.5-2.8,0.5-4.4,0.5c-1.1,0-1.6,0-2.8,0c-0.5,0-1.6-0.5-2.2-0.5c-1.1,0-1.6,0-2.2-0.5
		s-1.1-0.5-1.7-1.1c-0.5,0-1.1-0.6-1.6-1.1c-0.6-0.5-0.6-1.1-1.1-1.6c0-0.5-0.5-1.1-0.5-1.7S106.3,292,106.3,291.5z"/>
	<path fill="#FFFFFF" d="M479.2,327.8l51.7-54.5c1.1-1.1,1.7-2.2,2.8-3.3c1.1-1.1,2.2-2.2,2.8-3.3c0.5-1.1,1.7-2.2,2.2-3.3
		c0.5-1.6,1.7-2.8,2.2-3.8c0.5-1.7,1.7-2.8,2.2-3.9c0.5-1.6,1.7-2.8,2.2-3.8c1.1-1.1,1.7-2.8,2.2-3.8c0.3-0.6,0.6-1.4,0.9-2.2
		c-9.5-86.9-59.5-161.7-130.7-205c4.2,2.6,8.1,5.3,12.1,8.1c0,0,0,0-0.5,0h-0.5H428h-0.5c0,0,0,0-0.5,0h-0.5c0,0,0,0-0.5,0h-0.5
		c-9.4,0-18.2,1.1-27,2.8c-8.3,1.7-17,4.4-24.8,7.7S358.2,67.1,351,72c-7.1,4.9-13.8,10.4-19.8,16.5c-6,6-11.5,12.6-16.5,19.8
		c-4.4,7.2-8.8,14.8-12.1,23.1s-6,16.5-7.7,25.3c-1.7,8.8-2.8,17.6-2.8,26.9v14.9h73.7c-0.5-5-0.5-9.9,0-14.9c0-5,1.1-9.9,2.2-14.3
		c1.7-4.4,2.8-8.8,5-13.2c2.2-3.8,4.4-8.3,7.2-11.5c2.8-3.8,6-7.1,9.3-9.9c3.8-2.8,7.7-5,11.5-7.2c3.9-2.2,8.3-3.8,13.2-5
		c5-1.1,9.9-1.6,15.4-1.6c4.4,0,8.8,0.5,12.6,1.1c4.4,0.6,7.7,1.7,11.5,3.3c3.3,1.6,6.6,3.3,9.9,5.5c3.3,2.2,6.1,4.4,8.8,7.1
		s4.9,5.5,7.1,8.8c1.7,3.3,3.3,6.6,5,10.5c1.7,3.9,2.8,7.7,3.3,11.5c0.5,4.4,1.1,8.3,1.1,12.7s-0.6,8.8-1.1,13.2
		c-1.1,3.8-2.2,8.3-3.3,12.1c-1.1,4.4-3.3,7.7-5,11.5c-2.2,3.3-4.4,7.2-6.6,10.5s-5,6.6-7.7,9.9c-2.2,3.3-5.5,6-8.3,9.3
		c-2.8,3.3-5.5,6.6-8.8,9.4s-6,6-9.3,8.8l-142.4,132v70.4h174.3c-6.6,6.6-13.2,12.7-19.8,18.2c-7.2,5.5-14.3,11-21.5,16
		c-7.1,5-14.8,9.3-22.5,13.8c-7.7,3.8-16,8.3-24.2,11.5s-16.5,6.6-25.3,9.3c-8.8,2.2-17.6,4.9-26.4,6.6c-8.8,2.2-18.1,3.3-27.5,4.4
		c-8.8,1.1-18.7,1.7-28,1.7c-19.3,0-37.4-1.7-55.5-5.5c-18.2-3.9-35.2-8.8-51.7-16c-16.5-7.1-31.9-15.4-46.8-25.3
		c-14.8-9.9-28-20.9-40.7-33.5C68.3,457,57.3,443.8,47.4,429s-18.2-30.3-25.3-46.8c-7.2-16.5-12.1-33.6-16-51.7
		c-3.8-18.2-5.5-36.3-5.5-55.5s1.7-37.4,5.5-55.5c3.3-15.7,7.5-30.6,13.2-45C6.9,205.9,0,240.2,0,276c0,151.9,123.1,275,275,275
		c108,0,201.4-62.3,246.4-152.8H400.5L479.2,327.8z"/>
	<path fill="#FFFFFF" d="M54.6,279.4c0-1.1,0.5-2.8,0.5-3.8c0.5-1.1,0.5-2.2,1.1-3.3c0.6-1.1,1.1-1.7,1.7-2.8
		c0.5-0.6,1.7-1.7,2.2-2.2s1.1-1.1,2.2-1.7c0.5-0.5,1.6-0.5,2.8-1.1c1.1-0.6,2.2-1.1,3.3-1.1c1.6-0.5,2.8-0.5,3.8-0.5
		c0.5,0,0.5,0,1.1,0c0.5,0,0.5,0,1.1,0s0.5,0,1.1,0s0.5,0,1.1,0c0.5,0,0.5,0,1.1,0s0.5,0,1.1,0c0.6,0,0.6,0,1.1,0v-11h-0.5h-0.6
		h-0.5h-0.5h-0.5h-0.6c0,0,0,0-0.5,0s-0.5,0-1.1,0c-1.1,0-1.7,0-2.8,0c-1.1,0-2.2,0.5-2.8,0.5s-1.7,0-2.2,0.5
		c-0.5,0-1.6,0.6-2.2,1.1c-0.5,0.5-1.6,1.1-2.2,1.6c-0.6,0.6-1.7,1.7-2.2,2.2c-1.1,0.6-1.7,1.1-2.2,2.2c-0.5,0.5-1.1,1.7-1.7,2.8
		V253h-9.9v53.3h7.7V279.4z"/>
	<path fill="#D10013" d="M275,1c46.6,0,90.5,11.6,128.9,32.1c-3-1.7-6.1-3.4-9.4-5c-6-2.8-12.1-6-18.7-8.3c-6.6-2.8-12.6-5-19.3-7.2
		c-6.6-2.2-13.2-3.8-19.8-5.5c-4.4-1.6-11.5-2.8-18.1-3.8c-7.2-1.1-13.8-1.7-20.9-2.2C290,0.5,282.8,0,275.7,0
		c-19.3,0-37.4,2.2-55.5,5.5c-18.2,3.8-35.2,8.8-51.7,16c-16.5,7.1-31.9,15.4-46.8,25.3c-14.8,9.9-28,20.9-40.7,33.5
		C68.3,93,57.3,106.1,47.4,121c-7.5,11.3-14.1,22.8-19.9,35C72.1,64.3,166.2,1,275,1z"/>
	<path fill="#D10013" d="M19.4,174.5c0.4-0.9,0.7-1.8,1.1-2.8C20.1,172.7,19.7,173.6,19.4,174.5z"/>
	<path fill="#D10013" d="M415.3,39.5c0.8,0.4,1.5,0.9,2.3,1.3C416.9,40.4,416.1,40,415.3,39.5z"/>
	<path fill="#D10013" d="M22.1,167.8c-0.1,0.1-0.1,0.3-0.2,0.4c0.2-0.5,0.5-1.1,0.7-1.6C22.5,167,22.3,167.4,22.1,167.8z"/>
	<path fill="#D10013" d="M550.7,271.1c0-1.1,0-2.8,0-3.8c0-1.1,0-2.8,0-3.9c0-1.1,0-2.8,0-3.8c0-1.1,0-2.8,0-3.9
		c0-1.1,0-2.8-0.5-3.8c0-1.1,0-2.8-0.5-3.8c0-1.1,0-2.8-0.5-3.9c-0.2,0.5-0.5,1-0.7,1.6c1.1,9.9,1.7,20,1.7,30.2
		c0,43.9-10.3,85.4-28.6,122.2h0.1c2.2-4.4,4.4-9.3,6.6-14.3c2.2-5,3.8-9.9,6-14.3c1.7-5,3.3-9.9,5-14.8c1.7-5,2.8-9.9,4.4-15.4
		c1.1-5,2.2-10.5,3.3-15.4c1.1-5.5,1.7-10.4,2.2-15.9s1.1-11,1.7-16.5c0.5-5.5,0.5-11,0.5-16.5C550.7,273.9,550.7,272.3,550.7,271.1
		z"/>
	<path fill="#D10013" d="M548.3,245.8c-0.3,0.8-0.6,1.6-0.9,2.2c-0.5,1.1-1.1,2.8-2.2,3.8c-0.5,1.1-1.7,2.2-2.2,3.8
		c-0.5,1.1-1.7,2.2-2.2,3.9c-0.5,1.1-1.7,2.2-2.2,3.8c-0.5,1.1-1.7,2.2-2.2,3.3c-0.5,1.1-1.7,2.2-2.8,3.3c-1.1,1.1-1.7,2.2-2.8,3.3
		l-51.7,54.5l-78.7,70.4h120.9C539.7,361.4,550,319.9,550,276C550,265.8,549.4,255.7,548.3,245.8z"/>
	<path fill="#D10013" d="M0.7,275c0,19.3,1.7,37.4,5.5,55.5c3.8,18.1,8.8,35.2,16,51.7c7.1,16.5,15.4,31.9,25.3,46.8
		s20.9,28,33.5,40.7c12.7,12.7,25.9,23.7,40.7,33.5c14.8,9.9,30.3,18.2,46.8,25.3c16.5,7.2,33.5,12.1,51.7,16
		c18.1,3.8,36.3,5.5,55.5,5.5c9.3,0,19.3-0.5,28-1.7c9.4-1.1,18.7-2.2,27.5-4.4c8.8-1.7,17.6-4.4,26.4-6.6c8.8-2.8,17-6,25.3-9.3
		s16.5-7.7,24.2-11.5c7.7-4.4,15.4-8.8,22.5-13.8c7.2-5,14.3-10.5,21.5-16c6.6-5.5,13.2-11.5,19.8-18.2H296.6v-70.4l142.4-132
		c3.3-2.8,6-6,9.3-8.8s6-6,8.8-9.4c2.8-3.3,6-6,8.3-9.3c2.8-3.3,5.5-6.6,7.7-9.9s4.4-7.1,6.6-10.5c1.7-3.8,3.9-7.1,5-11.5
		c1.1-3.8,2.2-8.3,3.3-12.1c0.5-4.4,1.1-8.8,1.1-13.2s-0.6-8.3-1.1-12.7c-0.5-3.8-1.6-7.7-3.3-11.5c-1.7-3.8-3.3-7.1-5-10.5
		c-2.2-3.3-4.4-6-7.1-8.8s-5.5-5-8.8-7.1c-3.3-2.2-6.6-3.9-9.9-5.5c-3.9-1.7-7.2-2.8-11.5-3.3c-3.8-0.5-8.2-1.1-12.6-1.1
		c-5.5,0-10.5,0.5-15.4,1.6c-5,1.1-9.3,2.8-13.2,5c-3.8,2.2-7.7,4.4-11.5,7.2c-3.3,2.8-6.6,6-9.3,9.9c-2.8,3.3-5,7.7-7.2,11.5
		c-2.2,4.4-3.3,8.8-5,13.2c-1.1,4.4-2.2,9.3-2.2,14.3c-0.5,5-0.5,9.9,0,14.9h-73.7v-14.9c0-9.3,1.1-18.1,2.8-26.9
		c1.7-8.8,4.4-17.1,7.7-25.3s7.7-15.9,12.1-23.1c5-7.2,10.5-13.8,16.5-19.8c6-6.1,12.7-11.6,19.8-16.5c7.2-5,14.9-9.4,22.6-12.7
		s16.5-6,24.8-7.7c8.8-1.6,17.6-2.8,27-2.8h0.5c0.5,0,0.5,0,0.5,0h0.5c0.5,0,0.5,0,0.5,0h0.5h0.5h0.5c0.5,0,0.5,0,0.5,0
		c-4-2.8-7.9-5.5-12.1-8.1c-0.7-0.5-1.5-0.9-2.3-1.3c-0.9-0.5-1.8-1.1-2.7-1.6c-3-1.6-5.8-3.2-8.7-4.9C365.5,12.6,321.6,1,275,1
		C166.2,1,72.1,64.3,27.5,156c-1.7,3.5-3.3,7-4.9,10.6c-0.2,0.5-0.5,1.1-0.7,1.6c-0.5,1.2-1,2.4-1.5,3.6c-0.4,0.9-0.8,1.8-1.1,2.8
		c-5.7,14.4-9.8,29.3-13.2,45C2.3,237.6,0.7,255.8,0.7,275z M297.1,273.9c0.5-1.6,0.5-3.8,1.6-5.5c0.6-1.6,1.7-3.3,2.2-5
		c1.1-1.6,2.2-2.8,3.3-4.4c1.1-1.1,2.8-2.2,4.4-3.3c1.7-1.1,3.3-2.2,5-2.8c1.6-0.5,3.8-1.1,6-1.7s4.4-0.5,7.2-0.5s4.9,0,7.1,0.5
		s4.4,1.1,6,1.7c1.7,0.5,3.9,1.6,5,2.8c1.7,1.1,2.8,2.2,4.4,3.3c1.1,1.1,2.2,2.8,3.3,4.4c1.1,1.7,1.6,3.3,2.2,5s1.1,3.3,1.7,5.5
		c0.5,1.7,0.5,3.9,0.5,5.5c0,1.7,0,3.9-0.5,5.5c-0.5,1.7-0.5,3.9-1.7,5.5c-0.5,1.7-1.7,3.3-2.2,5c-1.1,1.7-2.2,2.8-3.3,4.4
		c-1.1,1.1-2.8,2.2-4.4,3.3c-1.7,1.1-3.3,2.2-5,2.8s-3.9,1.1-6,1.6c-2.2,0.6-4.4,0.6-7.1,0.6s-5,0-7.2-0.5s-4.4-1.1-6-1.7
		c-1.7-0.5-3.9-1.6-5-2.8c-1.7-1.1-2.8-2.2-4.4-3.3c-1.1-1.1-2.2-2.8-3.3-4.4c-1.1-1.7-1.6-3.3-2.2-5c-0.5-1.7-1.1-3.3-1.6-5.5
		c-0.5-1.7-0.5-3.9-0.5-5.5C296.6,277.8,297.1,275.5,297.1,273.9z M264.1,233.2h9.9v11h-9.9V233.2z M264.1,253h9.9v53.3h-9.9V253z
		 M177.8,273.3c0.6-2.2,1.1-3.9,1.7-5.5c0.5-1.7,1.7-3.3,2.8-5s2.2-2.8,3.3-3.8c1.1-1.1,2.8-2.2,4.4-3.3c1.6-1.1,3.3-1.6,5-2.2
		c1.6-0.6,3.3-1.1,5.5-1.7c1.6-0.5,3.8-0.5,6-0.5c1.1,0,2.2,0,2.8,0c1.1,0,2.2,0,2.8,0.5c1.1,0,2.2,0.5,2.8,0.5
		c1.1,0,1.6,0.5,2.8,1.1c1.1,0.5,1.6,0.5,2.8,1.1c0.5,0.5,1.6,1.1,2.2,1.7c0.5,0.5,1.6,1.1,2.2,1.6c0.6,0.5,1.1,1.1,1.7,2.2v-27.5
		h10.5v73.7h-10.5v-6.6c-0.5,0.5-1.1,1.1-1.7,2.2c-0.5,0.5-1.1,1.1-2.2,1.6c-0.6,0.5-1.7,1.1-2.2,1.7c-1.1,0.5-1.7,1.1-2.8,1.1
		c-1.1,0.5-1.7,0.5-2.8,1.1c-1.1,0-1.7,0.5-2.8,0.5c-1.1,0-2.2,0.5-2.8,0.5c-1.1,0-2.2,0-2.8,0c-2.2,0-3.9,0-6-0.5
		c-1.7-0.5-3.9-0.5-5.5-1.7c-1.7-0.5-3.3-1.6-5-2.2c-1.7-1.1-2.8-2.2-4.4-3.3c-1.1-1.1-2.8-2.8-3.3-3.8c-1.1-1.7-2.2-3.3-2.8-5
		s-1.1-3.9-1.7-5.5c-0.5-2.2-0.5-3.9-0.5-6.6C177.2,277.7,177.2,275.5,177.8,273.3z M96.4,291.5c0-1.1,0-2.2,0.5-3.3
		c0-1.1,0.6-2.2,1.1-2.8c0.5-1.1,1.1-1.7,1.6-2.8c0.6-0.5,1.7-1.7,2.2-2.2c1.1-0.5,1.7-1.1,3.3-1.7c1.1-0.5,2.8-1.1,3.9-1.6
		c1.6-0.5,3.3-0.5,5-1.1c1.6-0.5,3.8-0.5,6-1.1h1.6h1.7h1.6h1.7h1.6h1.7h1.7h1.6c0.5,0,1.7,0,2.2,0s1.1,0,1.6-0.5
		c0.6,0,1.1,0,1.7-0.5c0.5,0,1.1-0.5,1.1-0.5c0.6,0,0.6-0.5,1.1-0.5c0.5-0.5,0.5-0.5,0.5-1.1c0-0.5,0.5-0.5,0.5-1.1s0-1.1,0-1.7
		c0-1.1,0-1.6-0.5-2.2c0-0.5-0.5-1.6-1.1-2.2c-0.6-0.5-1.1-1.1-1.7-1.6s-1.1-0.5-1.6-1.1c-0.6-0.5-1.7-0.5-2.2-0.5s-1.7-0.5-2.8-0.5
		c-1.1,0-1.7,0-2.8,0c-1.1,0-2.2,0-2.8,0c-1.1,0-2.2,0-3.3,0c-1.1,0-2.2,0-2.8,0.5c-1.1,0-1.7,0.5-2.8,0.5c-1.1,0.5-1.7,0.5-2.2,1.1
		c-0.5,0.5-1.7,1.1-2.2,1.6s-1.1,1.1-1.7,1.7c-0.5,0.5-0.5,1.6-1.1,2.2c0,1.1-0.5,1.6-0.5,2.8H99.7c0-1.7,0.5-3.3,1.1-4.4
		c0.6-1.6,1.1-2.8,1.7-3.8c0.5-1.1,1.7-2.2,2.2-3.3c1.1-1.1,1.6-1.7,2.8-2.8c1.1-0.5,2.2-1.7,3.8-1.7c1.1-0.5,2.8-1.1,4.4-1.1
		c1.6-0.5,3.3-0.5,5-0.5c1.6,0,3.8,0,5.5,0c1.1,0,2.8,0,4.4,0c1.7,0,2.8,0,4.4,0.5c1.6,0,2.8,0.5,3.8,1.1c1.1,0.5,2.8,1.1,3.9,1.7
		c1.1,0.5,2.2,1.1,3.3,2.2c1.1,0.5,1.6,1.6,2.8,2.8c0.5,1.1,1.1,2.2,1.6,3.3c0.6,1.1,0.6,2.8,0.6,4.4v28.6c0,0.5,0,0.5,0,1.1
		s0,0.5,0,1.1c0,0.5,0,0.5,0.5,0.5l0.5,0.5l0.5,0.5c0,0,0.5,0,0.5,0.5c0.6,0,0.6,0,1.1,0s0.5,0,1.1,0h0.6h0.5h0.5h0.5h0.6h0.5h0.5
		c0,0,0,0,0.5,0v3.8h-1.1c-0.5,0-0.5,0-1.1,0s-0.5,0-1.1,0c-0.6,0-0.6,0-1.1,0s-0.5,0-1.1,0c-0.6,0-0.6,0-1.1,0s-0.5,0-1.1,0
		c-0.6,0-0.6,0-1.1,0s-0.5,0-1.1,0c-0.6,0-1.1,0-1.7,0s-1.1,0-1.6,0c-0.6,0-1.1,0-1.7-0.5c-0.5,0-1.1-0.5-1.1-0.5
		c-0.6-0.5-0.6-0.5-1.1-1.1s-0.5-0.5-1.1-1.1c0-0.5-0.6-1.1-0.6-1.6s-0.5-1.1-0.5-2.2c-0.5,0.5-1.1,1.1-1.6,2.2
		c-0.6,0.5-1.7,1.1-2.2,1.6s-1.7,1.1-2.8,1.7c-1.1,0.5-1.7,1.1-2.8,1.1c-1.1,0.5-2.2,0.5-3.3,1.1c-1.1,0.5-2.2,0.5-3.3,0.5
		c-1.1,0-2.2,0.5-3.3,0.5c-1.1,0-2.2,0-3.3,0c-2.2,0-4.4,0-6-0.5c-1.7,0-3.3-0.5-5-1.1c-1.7-0.5-2.8-1.1-3.8-1.6
		c-1.1-0.5-2.2-1.7-2.8-2.2c-0.6-0.5-1.7-1.7-2.2-2.8c-0.5-1.1-1.1-1.7-1.1-2.8c-0.5-1.1-0.5-1.7-0.5-2.8
		C96.4,293.1,96.4,292.6,96.4,291.5z M46.9,253h9.9v9.9c0.6-1.1,1.1-2.2,1.7-2.8c0.5-1.1,1.1-1.6,2.2-2.2c0.5-0.5,1.6-1.6,2.2-2.2
		c0.5-0.5,1.6-1.1,2.2-1.6c0.6-0.5,1.7-1.1,2.2-1.1c0.5-0.5,1.7-0.5,2.2-0.5s1.6-0.5,2.8-0.5c1.1,0,1.6,0,2.8,0c0.5,0,0.5,0,1.1,0
		s0.5,0,0.5,0h0.6h0.5h0.5h0.5h0.6h0.5v11c0.5,0,0.5,0,1.1,0c-0.5,0-0.5,0-1.1,0s-0.5,0-1.1,0c-0.5,0-0.5,0-1.1,0s-0.5,0-1.1,0
		c-0.6,0-0.6,0-1.1,0s-0.5,0-1.1,0s-0.5,0-1.1,0c-0.6,0-0.6,0-1.1,0c-1.1,0-2.2,0-3.8,0.5c-1.1,0-2.2,0.5-3.3,1.1
		c-1.1,0.5-2.2,0.5-2.8,1.1c-1.1,0.5-1.7,1.1-2.2,1.7s-1.7,1.6-2.2,2.2c-0.5,1.1-1.1,1.6-1.7,2.8c-0.5,1.1-0.5,2.2-1.1,3.3
		c0,1.1-0.5,2.8-0.5,3.8v27h-7.7V253z"/>
	<path fill="#D10013" d="M309.8,289.8c0.6,1.1,1.1,2.2,2.2,3.3c0.5,1.1,1.7,1.7,2.8,2.8c1.1,0.5,2.2,1.7,3.3,2.2
		c1.1,0.5,2.8,1.1,4.4,1.1c1.7,0.5,3.3,0.5,5,0.5c1.6,0,3.3,0,5-0.5c1.6-0.5,2.8-0.5,4.4-1.1c1.1-0.5,2.2-1.1,3.3-2.2
		c1.1-0.5,1.7-1.7,2.8-2.8c0.6-1.1,1.7-2.2,2.2-3.3c0.5-1.1,1.1-2.2,1.7-3.3c0.5-1.1,0.5-2.2,0.5-3.3c0-1.1,0-2.2,0-3.9
		c0-1.1,0-2.2,0-3.8c0-1.1-0.5-2.2-0.5-3.3c-0.5-1.1-0.5-2.2-1.7-3.3c-0.5-1.1-1.1-2.2-2.2-3.3c-0.5-1.1-1.6-1.7-2.8-2.8
		c-1.1-0.5-2.2-1.7-3.3-2.2c-1.1-0.5-2.8-1.1-4.4-1.1c-1.7-0.5-3.3-0.5-5-0.5s-3.3,0-5,0.5s-2.8,0.5-4.4,1.1
		c-1.1,0.5-2.2,1.1-3.3,2.2c-1.1,0.5-1.6,1.6-2.8,2.8c-0.5,1.1-1.6,2.2-2.2,3.3c-0.5,1.1-1.1,2.2-1.6,3.3s-0.5,2.2-0.5,3.3
		s0,2.2,0,3.8c0,1.1,0,2.2,0,3.9c0,1.1,0.5,2.2,0.5,3.3C308.7,287.6,308.7,288.8,309.8,289.8z"/>
	<path fill="#D10013" d="M107.9,296.4c0.5,0.5,1.1,1.1,1.6,1.1c0.5,0.5,1.1,0.5,1.7,1.1s1.1,0.5,2.2,0.5c0.6,0,1.7,0.5,2.2,0.5
		c1.1,0,1.7,0,2.8,0c1.7,0,2.8,0,4.4-0.5c1.1,0,2.8-0.5,3.8-0.5c1.1-0.5,2.2-0.5,3.3-1.1c1.1-0.5,2.2-1.1,3.3-1.7
		c1.1-0.5,1.6-1.6,2.8-2.2c0.5-0.5,1.6-1.6,2.2-2.8c0.6-1.1,1.1-1.6,1.1-2.8c0.5-1.1,0.5-2.2,0.5-3.3v-6.6l-0.5,0.5
		c0.5,0.6,0.5,0.6,0,0.6c-0.5,0-0.5,0.5-1.1,0.5s-0.5,0-1.1,0.5c-0.6,0-0.6,0-1.1,0.6c-0.5,0-1.1,0-1.6,0.5c-0.6,0-1.1,0-1.7,0.5
		c-0.5,0-1.1,0-2.2,0h-1.6h-1.7h-1.6h-1.7h-1.6h-1.7l-2.8,0.5c-1.1,0-1.6,0-2.8,0.5c-1.1,0-1.6,0.5-2.2,0.5c-0.5,0-1.6,0.5-2.2,0.5
		c-0.6,0-1.1,0.5-1.7,1.1s-1.1,0.5-1.1,1.1c-0.6,0.5-0.6,1.1-1.1,1.1c0,0.5-0.5,1.1-0.5,1.7s0,1.1,0,2.2c0,0.5,0,1.1,0,1.6
		s0.5,1.1,0.5,1.7C107.4,295.3,107.4,295.9,107.9,296.4z"/>
	<path fill="#D10013" d="M189.3,287.1c0.5,1.1,1.1,2.2,1.6,3.3s1.1,2.2,2.2,2.8c0.5,1.1,1.7,1.7,2.8,2.8c1.1,0.5,2.2,1.1,3.3,1.7
		c1.1,0.5,2.8,1.1,3.9,1.1c1.6,0.5,3.3,0.5,4.9,0.5c1.7,0,3.3,0,5-0.5c1.7-0.5,2.8-0.5,3.9-1.1c1.1-0.6,2.2-1.1,3.3-1.7
		s2.2-1.7,2.8-2.8s1.6-1.7,2.2-2.8c0.5-1.1,1.1-2.2,1.6-3.3c0.5-1.1,0.5-2.2,1.1-3.3c0-1.1,0.5-2.2,0.5-3.9c0-1.6,0-2.8-0.5-4.4
		c0-1.1-0.5-2.8-1.1-3.9c-1.6-1.1-2.2-2.2-2.8-3.3c-0.5-1.1-1.6-2.2-2.2-2.8c-1.1-1.1-1.6-1.6-2.8-2.2c-1.1-0.5-2.2-1.1-3.3-1.6
		s-2.8-0.5-3.8-1.1c-1.1,0-2.8-0.5-4.4-0.5c-1.6,0-2.8,0-4.4,0.5c-1.1,0-2.8,0.5-3.9,1.1c-1.1,0.5-2.2,1.1-3.3,1.6s-2.2,1.7-2.8,2.2
		c-1.1,1.1-1.7,1.7-2.2,2.8c-0.5,1.1-1.1,2.2-1.6,3.3c-0.6,1.1-0.6,2.8-1.1,3.9c0,1.1-0.5,2.8-0.5,4.4c0,1.1,0,2.8,0.5,3.9
		C188.2,284.9,188.8,286,189.3,287.1z"/>
</g>
</svg>
