<?xml version="1.0" encoding="utf-8"?>
<!-- Generator: Adobe Illustrator 19.2.0, SVG Export Plug-In . SVG Version: 6.00 Build 0)  -->
<svg version="1.1" id="Layer_1" xmlns="http://www.w3.org/2000/svg" xmlns:xlink="http://www.w3.org/1999/xlink" x="0px" y="0px"
	 viewBox="0 0 184.7 78.4" style="enable-background:new 0 0 184.7 78.4;" xml:space="preserve">
<style type="text/css">
	.st0{display:none;}
	.st1{display:inline;}
	.st2{fill:#fff;}
</style>
<g class="st0">
	<g class="st1">
		<path class="st2" d="M-17.7,14.1V21h6.9v5.5h-6.9v12.7h-6.1V8.6h14.1v5.5H-17.7z"/>
		<path class="st2" d="M-7.7,39.2V8.6h6.1v25.1h8v5.5H-7.7z"/>
		<path class="st2" d="M22.8,39.2l-1-4.8h-7l-1,4.8H7.4l7.9-30.6h6l7.9,30.6H22.8z M18.3,17.6l-2.4,11.3h4.7L18.3,17.6z"/>
		<path class="st2" d="M43.4,39.2L37,24.2v14.9h-6.1V8.6h5.3l6.4,14.9V8.6h6.1v30.6H43.4z"/>
		<path class="st2" d="M67.5,36.2c-1.4,1.6-3.3,3-6.7,3h-8.6V8.6h8.6c3.4,0,5.3,1.4,6.7,3c2.4,2.8,2.3,8.3,2.3,12.3
			C69.7,27.9,69.9,33.4,67.5,36.2z M62.9,15.4c-0.4-0.8-1.2-1.3-2.3-1.3h-2.4v19.6h2.4c1.1,0,1.9-0.6,2.3-1.3
			c0.7-1.4,0.7-5.1,0.7-8.5C63.6,20.5,63.6,16.9,62.9,15.4z"/>
		<path class="st2" d="M72.5,39.2V8.6h14.1v5.5h-8V21h6.9v5.5h-6.9v7.2h8v5.5H72.5z"/>
		<path class="st2" d="M101.1,39.2l-3.7-11.9h-2v11.9h-6.1V8.6h8.7c6.7,0,8.5,3.5,8.5,9.3c0,3.3-0.5,6.2-3.5,8l4.5,13.2H101.1z
			 M97.9,14.1h-2.6v7.7h2.6c2.3,0,2.4-2.1,2.4-3.9C100.3,16.2,100.2,14.1,97.9,14.1z"/>
		<path class="st2" d="M122.1,39.2l-6.5-14.9v14.9h-6.1V8.6h5.3l6.4,14.9V8.6h6.1v30.6H122.1z"/>
	</g>
	<g class="st1">
		<path class="st2" d="M-23.8,86.7V56.1h6.1v30.6H-23.8z"/>
		<path class="st2" d="M-1.7,86.7l-6.5-14.9v14.9h-6.1V56.1H-9L-2.6,71V56.1h6.1v30.6H-1.7z"/>
		<path class="st2" d="M13.1,61.6v6.9H20V74h-6.9v12.7H7V56.1h14.1v5.5H13.1z"/>
		<path class="st2" d="M38,83.9c-1.4,1.7-3.3,3-6.7,3c-3.4,0-5.2-1.4-6.7-3c-2.4-2.9-2.3-8.5-2.3-12.6c0-4.1-0.2-9.7,2.3-12.6
			c1.4-1.7,3.2-3,6.7-3c3.4,0,5.3,1.4,6.7,3c2.4,2.9,2.3,8.5,2.3,12.6C40.3,75.5,40.5,81,38,83.9z M33.4,62.4
			c-0.3-0.7-1-1.2-2.1-1.2c-1.1,0-1.7,0.5-2,1.2c-0.7,1.4-0.8,5.2-0.8,8.9c0,3.7,0.1,7.5,0.8,8.9c0.3,0.7,0.9,1.2,2,1.2
			c1.1,0,1.8-0.5,2.1-1.2c0.7-1.4,0.8-5.2,0.8-8.9C34.2,67.7,34.1,63.9,33.4,62.4z"/>
		<path class="st2" d="M42.4,86.7v-6.4h6.4v6.4H42.4z"/>
		<path class="st2" d="M67.4,84.6c-1.3,1.3-3.3,2-6.4,2h-8.8V56.1H61c3,0,5.1,0.7,6.4,2c1.5,1.4,2,3.6,2,6.6c0,2-0.2,3.6-1.5,4.9
			c-0.4,0.4-0.8,0.7-1.4,1c0.6,0.3,1,0.7,1.4,1.1c1.4,1.6,1.5,3.9,1.5,5.6C69.4,80.6,68.9,83,67.4,84.6z M60.1,61.6h-1.8v6.5h1.8
			c2.4,0,3.2-1,3.2-3.3C63.3,62.5,62.6,61.6,60.1,61.6z M60.2,73.3h-1.9v7.9h1.9c2.4,0,3.1-1.2,3.1-3.9
			C63.3,74.4,62.6,73.3,60.2,73.3z"/>
		<path class="st2" d="M72.5,86.7V56.1h14.1v5.5h-8v6.9h6.9V74h-6.9v7.2h8v5.5H72.5z"/>
	</g>
	<g class="st1">
		<g>
			<g>
				<rect x="-23.8" y="44.7" class="st2" width="151.1" height="5.9"/>
			</g>
		</g>
	</g>
</g>
<g>
	<g>
		<path class="st2" d="M15.3,27.6c-1.4,1.6-3.3,3-6.7,3H0V0h8.6c3.4,0,5.3,1.4,6.7,3c2.4,2.8,2.3,8.3,2.3,12.3
			C17.6,19.3,17.8,24.8,15.3,27.6z M10.8,6.8c-0.4-0.8-1.2-1.3-2.3-1.3H6.1v19.6h2.4c1.1,0,1.9-0.6,2.3-1.3c0.7-1.4,0.7-5.1,0.7-8.5
			C11.5,11.8,11.5,8.2,10.8,6.8z"/>
		<path class="st2" d="M20.3,30.6V0h14.1v5.5h-8v6.9h6.9v5.5h-6.9v7.2h8v5.5H20.3z"/>
	</g>
	<g>
		<path class="st2" d="M11.8,78L8.1,66.1h-2V78H0V47.5h8.7c6.7,0,8.5,3.5,8.5,9.3c0,3.3-0.5,6.2-3.5,8L18.2,78H11.8z M8.7,53H6.1
			v7.7h2.6c2.3,0,2.4-2.1,2.4-3.9C11.1,55,11,53,8.7,53z"/>
		<path class="st2" d="M20.3,78V47.5h14.1V53h-8v6.9h6.9v5.5h-6.9v7.2h8V78H20.3z"/>
		<path class="st2" d="M52.4,75.1c-1.4,1.6-3.3,3-6.7,3H37V47.5h8.6c3.4,0,5.3,1.4,6.7,3c2.4,2.8,2.3,8.3,2.3,12.3
			C54.6,66.7,54.8,72.2,52.4,75.1z M47.8,54.3c-0.4-0.8-1.2-1.3-2.3-1.3h-2.4v19.6h2.4c1.1,0,1.9-0.6,2.3-1.3
			c0.7-1.4,0.7-5.1,0.7-8.5C48.5,59.3,48.5,55.7,47.8,54.3z"/>
		<path class="st2" d="M70.2,78l-1-4.8h-7l-1,4.8h-6.4l7.9-30.6h6L76.5,78H70.2z M65.7,56.4l-2.4,11.3H68L65.7,56.4z"/>
		<path class="st2" d="M91.6,76.2c-1.5,1.5-3.4,2.2-5.9,2.2c-3.4,0-5.2-1.4-6.7-3c-2.4-2.9-2.3-8.4-2.3-12.5c0-4.1-0.2-9.7,2.3-12.6
			c1.4-1.7,3.2-3,6.7-3c2.5,0,4.4,0.7,5.9,2.2c1.6,1.5,2.6,3.9,2.7,6.8h-6.1c0-0.9-0.1-1.7-0.5-2.4c-0.3-0.7-0.9-1.2-2.1-1.2
			c-1.1,0-1.7,0.5-2,1.2c-0.7,1.4-0.8,5.2-0.8,8.9c0,3.7,0.1,7.5,0.8,8.9c0.3,0.7,0.9,1.2,2,1.2c1.1,0,1.8-0.5,2.1-1.2
			c0.3-0.6,0.4-1.5,0.5-2.4h6.1C94.2,72.2,93.2,74.7,91.6,76.2z"/>
		<path class="st2" d="M106.8,53V78h-6.1V53h-5.2v-5.5H112V53H106.8z"/>
		<path class="st2" d="M113.9,78V47.5h6.1V78H113.9z"/>
		<path class="st2" d="M123.5,78V47.5h14.1V53h-8v6.9h6.9v5.5h-6.9v7.2h8V78H123.5z"/>
		<path class="st2" d="M140.5,78v-6.4h6.4V78H140.5z"/>
		<path class="st2" d="M165.5,76c-1.3,1.3-3.3,2-6.4,2h-8.8V47.5h8.8c3,0,5.1,0.7,6.4,2c1.5,1.4,2,3.6,2,6.6c0,2-0.2,3.6-1.5,4.9
			c-0.4,0.4-0.8,0.7-1.4,1c0.6,0.3,1,0.7,1.4,1.1c1.4,1.6,1.5,3.9,1.5,5.6C167.6,71.9,167.1,74.4,165.5,76z M158.3,53h-1.8v6.5h1.8
			c2.4,0,3.2-1,3.2-3.3C161.5,53.9,160.7,53,158.3,53z M158.4,64.6h-1.9v7.9h1.9c2.4,0,3.1-1.2,3.1-3.9
			C161.5,65.8,160.7,64.6,158.4,64.6z"/>
		<path class="st2" d="M170.6,78V47.5h14.1V53h-8v6.9h6.9v5.5h-6.9v7.2h8V78H170.6z"/>
	</g>
	<g>
		<rect y="36" class="st2" width="184.7" height="5.9"/>
	</g>
</g>
<g class="st0">
	<g class="st1">
		<path class="st2" d="M-17.7,14.1V21h6.9v5.5h-6.9v12.7h-6.1V8.6h14.1v5.5H-17.7z"/>
		<path class="st2" d="M-7.7,39.2V8.6h6.1v25.1h8v5.5H-7.7z"/>
		<path class="st2" d="M22.8,39.2l-1-4.8h-7l-1,4.8H7.4l7.9-30.6h6l7.9,30.6H22.8z M18.3,17.6l-2.4,11.3h4.7L18.3,17.6z"/>
		<path class="st2" d="M43.4,39.2L37,24.2v14.9h-6.1V8.6h5.3l6.4,14.9V8.6h6.1v30.6H43.4z"/>
		<path class="st2" d="M67.5,36.2c-1.4,1.6-3.3,3-6.7,3h-8.6V8.6h8.6c3.4,0,5.3,1.4,6.7,3c2.4,2.8,2.3,8.3,2.3,12.3
			C69.7,27.9,69.9,33.4,67.5,36.2z M62.9,15.4c-0.4-0.8-1.2-1.3-2.3-1.3h-2.4v19.6h2.4c1.1,0,1.9-0.6,2.3-1.3
			c0.7-1.4,0.7-5.1,0.7-8.5C63.6,20.5,63.6,16.9,62.9,15.4z"/>
		<path class="st2" d="M84.3,39.2l-3.7-11.9h-2v11.9h-6.1V8.6h8.7c6.7,0,8.5,3.5,8.5,9.3c0,3.3-0.5,6.2-3.5,8l4.5,13.2H84.3z
			 M81.1,14.1h-2.6v7.7h2.6c2.3,0,2.4-2.1,2.4-3.9C83.6,16.2,83.4,14.1,81.1,14.1z"/>
		<path class="st2" d="M92.7,39.2V8.6h14.1v5.5h-8V21h6.9v5.5h-6.9v7.2h8v5.5H92.7z"/>
	</g>
	<g class="st1">
		<path class="st2" d="M-23.8,86.7V56.1h6.1v30.6H-23.8z"/>
		<path class="st2" d="M-1.7,86.7l-6.5-14.9v14.9h-6.1V56.1H-9L-2.6,71V56.1h6.1v30.6H-1.7z"/>
		<path class="st2" d="M13.1,61.6v6.9H20V74h-6.9v12.7H7V56.1h14.1v5.5H13.1z"/>
		<path class="st2" d="M38,83.9c-1.4,1.7-3.3,3-6.7,3c-3.4,0-5.2-1.4-6.7-3c-2.4-2.9-2.3-8.5-2.3-12.6c0-4.1-0.2-9.7,2.3-12.6
			c1.4-1.7,3.2-3,6.7-3c3.4,0,5.3,1.4,6.7,3c2.4,2.9,2.3,8.5,2.3,12.6C40.3,75.5,40.5,81,38,83.9z M33.4,62.4
			c-0.3-0.7-1-1.2-2.1-1.2c-1.1,0-1.7,0.5-2,1.2c-0.7,1.4-0.8,5.2-0.8,8.9c0,3.7,0.1,7.5,0.8,8.9c0.3,0.7,0.9,1.2,2,1.2
			c1.1,0,1.8-0.5,2.1-1.2c0.7-1.4,0.8-5.2,0.8-8.9C34.2,67.7,34.1,63.9,33.4,62.4z"/>
		<path class="st2" d="M42.4,86.7v-6.4h6.4v6.4H42.4z"/>
		<path class="st2" d="M67.4,84.6c-1.3,1.3-3.3,2-6.4,2h-8.8V56.1H61c3,0,5.1,0.7,6.4,2c1.5,1.4,2,3.6,2,6.6c0,2-0.2,3.6-1.5,4.9
			c-0.4,0.4-0.8,0.7-1.4,1c0.6,0.3,1,0.7,1.4,1.1c1.4,1.6,1.5,3.9,1.5,5.6C69.4,80.6,68.9,83,67.4,84.6z M60.1,61.6h-1.8v6.5h1.8
			c2.4,0,3.2-1,3.2-3.3C63.3,62.5,62.6,61.6,60.1,61.6z M60.2,73.3h-1.9v7.9h1.9c2.4,0,3.1-1.2,3.1-3.9
			C63.3,74.4,62.6,73.3,60.2,73.3z"/>
		<path class="st2" d="M72.5,86.7V56.1h14.1v5.5h-8v6.9h6.9V74h-6.9v7.2h8v5.5H72.5z"/>
	</g>
	<g class="st1">
		<g>
			<g>
				<rect x="-23.8" y="44.7" class="st2" width="130.6" height="5.9"/>
			</g>
		</g>
	</g>
</g>
<g class="st0">
	<g class="st1">
		<path class="st2" d="M-17.7,14.1V21h6.9v5.5h-6.9v12.7h-6.1V8.6h14.1v5.5H-17.7z"/>
		<path class="st2" d="M-7.7,39.1V8.6h6.1v25.1h8v5.5H-7.7z"/>
		<path class="st2" d="M22.8,39.1l-1-4.8h-7l-1,4.8H7.4l7.9-30.6h6l7.9,30.6H22.8z M18.3,17.5l-2.4,11.3h4.7L18.3,17.5z"/>
		<path class="st2" d="M43.4,39.1L37,24.2v14.9h-6.1V8.6h5.3l6.4,14.9V8.6h6.1v30.6H43.4z"/>
		<path class="st2" d="M67.5,36.2c-1.4,1.6-3.3,3-6.7,3h-8.6V8.6h8.6c3.4,0,5.3,1.4,6.7,3c2.4,2.8,2.3,8.3,2.3,12.3
			C69.7,27.8,69.9,33.3,67.5,36.2z M62.9,15.4c-0.4-0.8-1.2-1.3-2.3-1.3h-2.4v19.6h2.4c1.1,0,1.9-0.6,2.3-1.3
			c0.7-1.4,0.7-5.1,0.7-8.5C63.6,20.4,63.6,16.8,62.9,15.4z"/>
		<path class="st2" d="M72.5,39.1V8.6h14.1v5.5h-8V21h6.9v5.5h-6.9v7.2h8v5.5H72.5z"/>
		<path class="st2" d="M101.1,39.1l-3.7-11.9h-2v11.9h-6.1V8.6h8.7c6.7,0,8.5,3.5,8.5,9.3c0,3.3-0.5,6.2-3.5,8l4.5,13.2H101.1z
			 M97.9,14.1h-2.6v7.7h2.6c2.3,0,2.4-2.1,2.4-3.9C100.3,16.1,100.2,14.1,97.9,14.1z"/>
		<path class="st2" d="M123.7,37.2c-1.4,1.3-3.7,2.3-6.7,2.3c-3,0-5.2-0.9-6.6-2.2c-1.5-1.5-2-3.6-2-6.8h6.1c0,1.2,0.1,2.1,0.6,2.8
			c0.3,0.4,0.9,0.7,1.9,0.7c0.9,0,1.5-0.3,1.9-0.8c0.4-0.5,0.6-1.3,0.6-2.6c0-2.9-0.5-3.4-2.7-4.3l-3.9-1.6
			c-3.1-1.3-4.4-2.9-4.4-7.7c0-2.8,0.9-5.2,2.7-6.8c1.5-1.2,3.3-1.9,5.6-1.9c2.7,0,4.7,0.7,6,1.9c1.7,1.5,2.4,4,2.4,7.1h-6.1
			c0-1.1,0-2.1-0.5-2.7c-0.3-0.5-0.9-0.8-1.8-0.8c-0.9,0-1.4,0.3-1.8,0.8c-0.4,0.5-0.5,1.2-0.5,2.2c0,1.9,0.3,2.5,2.1,3.2l3.8,1.5
			c3.9,1.5,5,3.3,5,8.8C125.6,33.5,125.2,35.7,123.7,37.2z"/>
	</g>
	<g class="st1">
		<path class="st2" d="M-11.3,86.6l-6.5-14.9v14.9h-6.1V56h5.3l6.4,14.9V56h6.1v30.6H-11.3z"/>
		<path class="st2" d="M-2.6,86.6V56h14.1v5.5h-8v6.9h6.9v5.5H3.5v7.2h8v5.5H-2.6z"/>
		<path class="st2" d="M39.7,86.6h-6.4L29.4,65l-3.9,21.6h-6.4L12.7,56h6.7l2.9,21.6L26.1,56h6.7l3.8,21.6L39.4,56h6.7L39.7,86.6z"
			/>
		<path class="st2" d="M61.8,84.7c-1.4,1.3-3.7,2.3-6.7,2.3c-3,0-5.2-0.9-6.6-2.2c-1.5-1.5-2-3.6-2-6.8h6.1c0,1.2,0.1,2.1,0.6,2.8
			c0.3,0.4,0.9,0.7,1.9,0.7c0.9,0,1.5-0.3,1.9-0.8c0.4-0.5,0.6-1.3,0.6-2.6c0-2.9-0.5-3.4-2.7-4.3l-3.9-1.6
			c-3.1-1.3-4.4-2.9-4.4-7.7c0-2.8,0.9-5.2,2.7-6.8c1.5-1.2,3.3-1.9,5.6-1.9c2.7,0,4.7,0.7,6,1.9c1.7,1.5,2.4,4,2.4,7.1h-6.1
			c0-1.1,0-2.1-0.5-2.7c-0.3-0.5-0.9-0.8-1.8-0.8c-0.9,0-1.4,0.3-1.8,0.8c-0.4,0.5-0.5,1.2-0.5,2.2c0,1.9,0.3,2.5,2.1,3.2l3.8,1.5
			c3.9,1.5,5,3.3,5,8.8C63.8,81,63.4,83.1,61.8,84.7z"/>
		<path class="st2" d="M66.3,86.6v-6.4h6.4v6.4H66.3z"/>
		<path class="st2" d="M91.3,84.6c-1.3,1.3-3.3,2-6.4,2h-8.8V56H85c3,0,5.1,0.7,6.4,2c1.5,1.4,2,3.6,2,6.6c0,2-0.2,3.6-1.5,4.9
			c-0.4,0.4-0.8,0.7-1.4,1c0.6,0.3,1,0.7,1.4,1.1c1.4,1.6,1.5,3.9,1.5,5.6C93.4,80.5,92.9,83,91.3,84.6z M84.1,61.5h-1.8v6.5h1.8
			c2.4,0,3.2-1,3.2-3.3C87.3,62.5,86.5,61.5,84.1,61.5z M84.2,73.2h-1.9v7.9h1.9c2.4,0,3.1-1.2,3.1-3.9
			C87.3,74.4,86.5,73.2,84.2,73.2z"/>
		<path class="st2" d="M96.4,86.6V56h14.1v5.5h-8v6.9h6.9v5.5h-6.9v7.2h8v5.5H96.4z"/>
	</g>
	<g class="st1">
		<g>
			<g>
				<rect x="-23.8" y="44.6" class="st2" width="149.4" height="5.9"/>
			</g>
		</g>
	</g>
</g>
</svg>
