<?xml version="1.0" encoding="utf-8"?>
<!-- Generator: Adobe Illustrator 17.1.0, SVG Export Plug-In . SVG Version: 6.00 Build 0)  -->
<!DOCTYPE svg PUBLIC "-//W3C//DTD SVG 1.1//EN" "http://www.w3.org/Graphics/SVG/1.1/DTD/svg11.dtd">
<svg version="1.1" id="Layer_1" xmlns="http://www.w3.org/2000/svg" xmlns:xlink="http://www.w3.org/1999/xlink" x="0px" y="0px"
	width="200px" viewBox="0 0 200 109.1" enable-background="new 0 0 200 109.1" xml:space="preserve">
<g>
	<polygon fill="#FFFFFF" points="0,0 0,30.3 200,30.3 200,0 0,0 	"/>
	<polygon fill="#FFFFFF" points="0,78.8 0,109.1 200,109.1 200,78.8 0,78.8 	"/>
	<path fill="#FFFFFF" d="M16.5,71.1c6.9,0,11.1-2.9,14.1-7.2l-7.4-5.4c-1.7,2-3.4,3.3-6.1,3.3c-3.7,0-6.3-3.1-6.3-7.2v-0.1
		c0-3.9,2.6-7,6.2-7c2.7,0,4.4,1.2,5.9,3.3l7.5-5.6c-2.7-4.3-7-7.1-13.5-7.1C6.9,38.1,0,45.6,0,54.5v0.1C0,63.6,7,71.1,16.5,71.1
		L16.5,71.1z M43.8,71c4.1,0,7.1-1.6,9.3-4v3.3h11V52.2c0-4.4-1-7.7-3.4-10c-2.5-2.5-6.4-3.8-12-3.8c-5.4,0-9.2,1-12.8,2.4l2.3,7.8
		c2.8-1.1,5.4-1.7,8.7-1.7c4.3,0,6.3,1.9,6.3,5.1v0.5c-1.8-0.6-4.7-1.2-7.6-1.2c-7.4,0-12.4,3.4-12.4,9.9v0.1
		C33.2,67.6,37.8,71,43.8,71L43.8,71z M47.8,64.1c-2.3,0-3.9-1.3-3.9-3.4v-0.1c0-2.3,1.9-3.9,5.1-3.9c1.6,0,3.2,0.4,4.3,0.8v1.5
		C53.3,62,51,64.1,47.8,64.1L47.8,64.1z M70,70.3h11.1V53.2c0-3.4,2-5.3,4.7-5.3c2.6,0,4.4,1.9,4.4,5.3v17.1h11.1V49.6
		c0-7.2-4-11.6-10.7-11.6c-4.5,0-7.4,2.5-9.4,5.1v-4.4H70V70.3L70,70.3z M115.4,70.5h10.1l12.6-31.8h-11.5l-6.1,18.4l-6.1-18.4
		h-11.7L115.4,70.5L115.4,70.5z M148.4,71c4.1,0,7.1-1.6,9.3-4v3.3h11V52.2c0-4.4-1-7.7-3.4-10c-2.5-2.5-6.4-3.8-12-3.8
		c-5.4,0-9.2,1-12.8,2.4l2.3,7.8c2.8-1.1,5.4-1.7,8.7-1.7c4.3,0,6.3,1.9,6.3,5.1v0.5c-1.8-0.6-4.7-1.2-7.6-1.2
		c-7.4,0-12.4,3.4-12.4,9.9v0.1C137.8,67.6,142.4,71,148.4,71L148.4,71z M152.3,64.1c-2.3,0-3.9-1.3-3.9-3.4v-0.1
		c0-2.3,1.9-3.9,5.1-3.9c1.6,0,3.2,0.4,4.3,0.8v1.5C157.8,62,155.6,64.1,152.3,64.1L152.3,64.1z M187.1,71c7.7,0,12.9-3.6,12.9-10.6
		v-0.1c0-6.1-5-8.3-11.2-10c-3.3-1-5.1-1.6-5.1-2.8v-0.1c0-0.9,0.9-1.5,2.6-1.5c2.5,0,6.1,1.1,9.3,2.9l3.8-7
		c-3.6-2.3-8.4-3.7-13-3.7c-7.3,0-12.7,3.7-12.7,10.4v0.1c0,6.4,5,8.5,11.2,10.1c3.3,0.9,5.1,1.5,5.1,2.7v0.1c0,1.1-0.9,1.7-2.8,1.7
		c-3.3,0-7.2-1.2-10.8-3.6l-4.1,6.7C176.6,69.5,181.8,71,187.1,71L187.1,71z"/>
</g>
</svg>
