<?xml version="1.0" encoding="utf-8"?>
<!-- Generator: Adobe Illustrator 17.0.0, SVG Export Plug-In . SVG Version: 6.00 Build 0)  -->
<!DOCTYPE svg PUBLIC "-//W3C//DTD SVG 1.1//EN" "http://www.w3.org/Graphics/SVG/1.1/DTD/svg11.dtd">
<svg version="1.1" id="Layer_1_copy" xmlns="http://www.w3.org/2000/svg" xmlns:xlink="http://www.w3.org/1999/xlink" x="0px"
	 y="0px"  width="1920px" height="1080px" viewBox="0 0 1920 1080" enable-background="new 0 0 1920 1080" xml:space="preserve">
<g>
	<path fill="#FFFFFF" d="M704.559,472.732c-12.054,0-19.613,7.355-21.86,22.677h42.291
		C723.15,480.496,716.204,472.732,704.559,472.732z"/>
	<path fill="#FFFFFF" d="M1262.466,522.786c0,9.194,6.129,16.549,17.773,16.549c13.484,0,23.086-10.828,23.086-23.29v-6.334
		c-3.473-1.838-9.193-4.086-17.979-4.086C1269.412,505.625,1262.466,512.163,1262.466,522.786z"/>
	<path fill="#FFFFFF" d="M610.17,538.721c14.097,0,25.537-12.258,25.537-33.097c0-20.838-11.44-33.096-25.537-33.096
		s-25.129,13.484-25.129,33.096C585.041,525.034,596.073,538.721,610.17,538.721z"/>
	<path fill="#FFFFFF" d="M806.505,522.786c0,9.194,6.129,16.549,17.774,16.549c13.484,0,23.086-10.828,23.086-23.29v-6.334
		c-3.473-1.838-9.194-4.086-17.979-4.086C813.451,505.625,806.505,512.163,806.505,522.786z"/>
	<path fill="#FFFFFF" d="M1174.863,522.786c0,9.194,6.129,16.549,17.773,16.549c13.484,0,23.086-10.828,23.086-23.29v-6.334
		c-3.473-1.838-9.193-4.086-17.979-4.086C1181.81,505.625,1174.863,512.163,1174.863,522.786z"/>
	<path fill="#FFFFFF" d="M503.634,378.612v256.869h966.322V378.612H503.634z M1282.078,473.141c-12.462,0-21.86,6.946-21.86,6.946
		l-5.516-11.645c0,0,11.236-7.764,28.193-7.764c24.312,0,33.914,13.893,33.914,34.936v52.913h-9.807l-1.635-11.849h-0.408
		c-5.107,8.171-14.097,13.892-26.559,13.892c-19.205,0-30.237-12.257-30.237-27.375c0-16.344,12.871-27.989,35.957-27.989
		c7.968,0,14.506,1.43,19.204,3.269v-2.86C1303.325,480.087,1295.357,473.141,1282.078,473.141z M1196.476,473.141
		c-12.462,0-21.86,6.946-21.86,6.946l-5.516-11.645c0,0,11.236-7.764,28.193-7.764c24.312,0,33.914,13.893,33.914,34.936v52.913
		h-9.807l-1.635-11.849h-0.408c-5.107,8.171-14.097,13.892-26.559,13.892c-19.205,0-30.237-12.257-30.237-27.375
		c0-16.344,12.871-27.989,35.957-27.989c7.968,0,14.506,1.43,19.204,3.269v-2.86
		C1217.723,480.087,1209.755,473.141,1196.476,473.141z M1114.389,462.722h10.011l1.226,15.118h0.817
		c4.29-9.806,13.483-15.322,22.473-15.322h4.699v11.441h-4.494c-10.42,0-20.021,9.806-20.635,22.881v51.688h-14.097V462.722z
		 M1017.346,462.722h10.011l1.635,12.667h1.43c0,0,7.764-14.71,28.397-14.71c20.431,0,36.365,17.774,36.365,44.946
		c0,26.764-15.935,44.946-35.956,44.946c-21.247,0-27.172-13.483-27.172-13.483h-0.613v43.311h-14.097V462.722z M937.828,484.991
		c0-13.484,8.989-24.312,29.011-24.312c20.226,0,31.666,6.946,31.666,6.946l-5.72,12.054c0,0-9.807-6.946-24.517-6.946
		c-11.645,0-17.365,3.882-17.365,11.85c0,18.387,49.85,7.763,49.85,40.656c0,13.279-8.172,25.333-30.236,25.333
		c-22.678,0-32.688-10.624-32.688-10.624l6.333-9.806c0,0,10.828,8.376,26.764,8.376c12.258,0,16.753-5.312,16.753-12.667
		C987.678,506.646,937.828,515.84,937.828,484.991z M875.355,462.722h14.301v-10.624c0-17.774,9.602-28.806,26.355-28.806
		c11.032,0,17.161,4.086,17.161,4.086l-4.291,11.441c0,0-5.72-3.064-12.462-3.064c-7.763,0-12.667,5.72-12.667,16.14v10.828h22.473
		v11.441h-22.473v74.365h-14.097v-74.365h-14.301V462.722z M826.118,473.141c-12.462,0-21.86,6.946-21.86,6.946l-5.516-11.645
		c0,0,11.236-7.764,28.193-7.764c24.312,0,33.914,13.893,33.914,34.936v52.913h-9.806l-1.634-11.849H849
		c-5.107,8.171-14.097,13.892-26.559,13.892c-19.204,0-30.236-12.257-30.236-27.375c0-16.344,12.871-27.989,35.957-27.989
		c7.968,0,14.505,1.43,19.205,3.269v-2.86C847.365,480.087,839.397,473.141,826.118,473.141z M704.763,460.679
		c22.882,0,34.731,18.796,34.731,42.699v3.474h-57.408c0.205,21.042,11.645,31.87,26.559,31.87c14.097,0,21.656-8.172,21.656-8.172
		l5.312,10.215c0,0-7.968,10.01-27.785,10.01c-24.924,0-39.838-18.182-39.838-44.945
		C667.989,479.883,682.086,460.679,704.763,460.679z M607.105,460.679c20.634,0,26.967,13.484,26.967,13.484h0.613v-49.236h14.097
		v123.601h-9.806l-2.043-13.688h-0.613c0,0-7.151,15.731-28.807,15.731c-20.634,0-36.774-17.774-36.774-44.946
		C570.74,478.861,586.675,460.679,607.105,460.679z M1406.532,608.394H570.317v-12.087h836.214V608.394z M1406.541,548.527h-17.365
		l-27.989-39.021l-8.785,8.989v30.032h-14.097V424.926h14.097v75.591h0.613l35.14-37.796h18.591l-35.753,36.979L1406.541,548.527z"
		/>
	<path fill="#FFFFFF" d="M1056.163,538.721c14.097,0,24.72-13.483,24.72-33.097c0-19.408-10.623-33.096-24.72-33.096
		c-13.893,0-25.538,12.258-25.538,33.096C1030.625,526.463,1042.271,538.721,1056.163,538.721z"/>
</g>
</svg>
