<?xml version="1.0" encoding="utf-8"?>
<!-- Generator: Adobe Illustrator 17.0.0, SVG Export Plug-In . SVG Version: 6.00 Build 0)  -->
<!DOCTYPE svg PUBLIC "-//W3C//DTD SVG 1.1//EN" "http://www.w3.org/Graphics/SVG/1.1/DTD/svg11.dtd">
<svg version="1.1" id="Layer_1_copy" xmlns="http://www.w3.org/2000/svg" xmlns:xlink="http://www.w3.org/1999/xlink" x="0px"
	 y="0px" width="180px" height="47.848px" viewBox="4.872 0 180 47.848" enable-background="new 4.872 0 180 47.848"
	 xml:space="preserve">
<g>
	<path fill="#FFFFFF" d="M42.299,17.532c-2.245,0-3.653,1.37-4.072,4.224h7.878C45.762,18.978,44.468,17.532,42.299,17.532z"/>
	<path fill="#FFFFFF" d="M146.222,26.856c0,1.713,1.142,3.083,3.311,3.083c2.512,0,4.3-2.017,4.3-4.338v-1.18
		c-0.647-0.342-1.712-0.761-3.349-0.761C147.516,23.659,146.222,24.877,146.222,26.856z"/>
	<path fill="#FFFFFF" d="M24.717,29.824c2.626,0,4.757-2.283,4.757-6.165c0-3.882-2.131-6.165-4.757-6.165s-4.681,2.512-4.681,6.165
		C20.036,27.275,22.091,29.824,24.717,29.824z"/>
	<path fill="#FFFFFF" d="M61.289,26.856c0,1.713,1.142,3.083,3.311,3.083c2.512,0,4.3-2.017,4.3-4.338v-1.18
		c-0.647-0.342-1.713-0.761-3.349-0.761C62.582,23.659,61.289,24.877,61.289,26.856z"/>
	<path fill="#FFFFFF" d="M129.904,26.856c0,1.713,1.142,3.083,3.311,3.083c2.512,0,4.3-2.017,4.3-4.338v-1.18
		c-0.647-0.342-1.712-0.761-3.349-0.761C131.198,23.659,129.904,24.877,129.904,26.856z"/>
	<path fill="#FFFFFF" d="M4.872,0v47.848h180V0H4.872z M149.875,17.608c-2.321,0-4.072,1.294-4.072,1.294l-1.027-2.169
		c0,0,2.093-1.446,5.252-1.446c4.529,0,6.317,2.588,6.317,6.508v9.856h-1.827l-0.305-2.207h-0.076
		c-0.951,1.522-2.626,2.588-4.947,2.588c-3.577,0-5.632-2.283-5.632-5.099c0-3.044,2.398-5.214,6.698-5.214
		c1.484,0,2.702,0.266,3.577,0.609v-0.533C153.833,18.902,152.349,17.608,149.875,17.608z M133.93,17.608
		c-2.321,0-4.072,1.294-4.072,1.294l-1.027-2.169c0,0,2.093-1.446,5.252-1.446c4.529,0,6.317,2.588,6.317,6.508v9.856h-1.827
		l-0.305-2.207h-0.076c-0.951,1.522-2.626,2.588-4.947,2.588c-3.577,0-5.632-2.283-5.632-5.099c0-3.044,2.398-5.214,6.698-5.214
		c1.484,0,2.702,0.266,3.577,0.609v-0.533C137.888,18.902,136.403,17.608,133.93,17.608z M118.639,15.667h1.865l0.228,2.816h0.152
		c0.799-1.827,2.512-2.854,4.186-2.854h0.875v2.131h-0.837c-1.941,0-3.729,1.827-3.844,4.262v9.628h-2.626L118.639,15.667
		L118.639,15.667z M100.563,15.667h1.865l0.305,2.36h0.266c0,0,1.446-2.74,5.29-2.74c3.806,0,6.774,3.311,6.774,8.372
		c0,4.985-2.968,8.372-6.698,8.372c-3.958,0-5.061-2.512-5.061-2.512h-0.114v8.068h-2.626V15.667z M85.751,19.816
		c0-2.512,1.674-4.529,5.404-4.529c3.768,0,5.899,1.294,5.899,1.294l-1.065,2.245c0,0-1.827-1.294-4.567-1.294
		c-2.169,0-3.235,0.723-3.235,2.207c0,3.425,9.286,1.446,9.286,7.573c0,2.474-1.522,4.719-5.632,4.719
		c-4.224,0-6.089-1.979-6.089-1.979l1.18-1.827c0,0,2.017,1.56,4.985,1.56c2.283,0,3.121-0.989,3.121-2.36
		C95.036,23.849,85.751,25.562,85.751,19.816z M74.114,15.667h2.664v-1.979c0-3.311,1.789-5.366,4.909-5.366
		c2.055,0,3.197,0.761,3.197,0.761l-0.799,2.131c0,0-1.065-0.571-2.321-0.571c-1.446,0-2.36,1.065-2.36,3.006v2.017h4.186v2.131
		h-4.186v13.852h-2.626V17.799h-2.664L74.114,15.667L74.114,15.667z M64.942,17.608c-2.321,0-4.072,1.294-4.072,1.294l-1.027-2.169
		c0,0,2.093-1.446,5.252-1.446c4.529,0,6.317,2.588,6.317,6.508v9.856h-1.827l-0.304-2.207h-0.076
		c-0.951,1.522-2.626,2.588-4.947,2.588c-3.577,0-5.632-2.283-5.632-5.099c0-3.044,2.398-5.214,6.698-5.214
		c1.484,0,2.702,0.266,3.577,0.609v-0.533C68.9,18.902,67.416,17.608,64.942,17.608z M42.337,15.287
		c4.262,0,6.469,3.501,6.469,7.954v0.647H38.113c0.038,3.92,2.169,5.937,4.947,5.937c2.626,0,4.034-1.522,4.034-1.522l0.989,1.903
		c0,0-1.484,1.865-5.176,1.865c-4.643,0-7.421-3.387-7.421-8.372C35.487,18.864,38.113,15.287,42.337,15.287z M24.146,15.287
		c3.844,0,5.023,2.512,5.023,2.512h0.114V8.627h2.626v23.024h-1.827l-0.381-2.55h-0.114c0,0-1.332,2.93-5.366,2.93
		c-3.844,0-6.85-3.311-6.85-8.372C17.372,18.674,20.34,15.287,24.146,15.287z M173.058,42.802H17.293v-2.251h155.764L173.058,42.802
		L173.058,42.802z M173.059,31.651h-3.235l-5.214-7.269l-1.636,1.674v5.594h-2.626V8.627h2.626v14.081h0.114l6.546-7.04h3.463
		l-6.66,6.888L173.059,31.651z"/>
	<path fill="#FFFFFF" d="M107.793,29.824c2.626,0,4.605-2.512,4.605-6.165c0-3.615-1.979-6.165-4.605-6.165
		c-2.588,0-4.757,2.283-4.757,6.165C103.036,27.541,105.206,29.824,107.793,29.824z"/>
</g>
</svg>
