<?xml version="1.0" encoding="utf-8"?>
<!-- Generator: Adobe Illustrator 17.1.0, SVG Export Plug-In . SVG Version: 6.00 Build 0)  -->
<!DOCTYPE svg PUBLIC "-//W3C//DTD SVG 1.1//EN" "http://www.w3.org/Graphics/SVG/1.1/DTD/svg11.dtd">
<svg version="1.1" id="Laag_1" xmlns="http://www.w3.org/2000/svg" xmlns:xlink="http://www.w3.org/1999/xlink" x="0px" y="0px"
	 viewBox="0 0 180.9 118.2" enable-background="new 0 0 180.9 118.2" xml:space="preserve">
<path fill="#FFFFFF" d="M71.2,50.6l-3.1,15.5l9.2,2.1c0,0,2.7-14.8,3.9-20.7c1.2-6.1,2-12.3,4.7-17.9c2-4.2,4.2-8.3,8.4-10.9
	c1.8-1.1,3.9-1.8,5.9-0.8c2,1.1,1.9,3.3,1.7,5.2c-0.3,3.4-0.8,6.8-1.2,10.2c2,0,4,0,6.5,0c0.7-4.3,1.6-8.4,1.9-12.7
	c0.3-4.4-2.8-7.7-7.1-7.2c-2.8,0.3-5.9,1.1-8.2,2.7c-3.1,2.2-5.6,5.3-8.1,7.6c0.5-2.5,1.1-5.6,1.7-9c-5.7,0-11,0-16.3,0
	c-0.2,0.9-0.4,1.7-0.6,2.7c2.5,0,4.9,0,7.4,0c-1.6,8.1-4.8,24.2-4.8,24.2s-5.9,9.6-7.9,12.5c-4.2,5.9-9.8,9.6-17.3,9.4
	c-5.2-0.2-8.6-2.8-9.7-7.5c-1.1-4.4-1-10.5,0.4-14.8c0,0,9.6,0,15.4-1c5.3-0.9,8.6-1.7,12.6-4.9c3.9-3.1,5.1-7.4,4.3-12.3
	c-0.8-5-4.1-7.7-8.8-8.9c-7.5-1.9-14.6-0.5-20.7,4.2c-11.1,8.6-15,20.3-13.5,33.9c0.1,0.6,0.2,1.2,0.3,1.8c-0.8,1-1.6,1.9-2.3,2.8
	c-2.5,2.8-5.2,5.2-8.9,6C13,63.7,10.8,62,11,58c0-1.6,0.2-3.3,0.5-4.9c2.2-11.2,7-35,7-35h12c0,0,0.8-3.4,0.9-3.4
	c-4,0-12.1,0-12.1,0L22.1,0h-7.3c0,0-4.8,14.7-4.8,14.7c-0.8,0-6.2,0-8.3,0C1.4,16,1.2,16.9,1,18.2c2.8,0,5.4,0,8.1,0
	C6.7,30,4.3,41.6,2.1,53.2c-0.4,2.1-0.4,4.4-0.2,6.6c0.3,3.9,3.9,6.5,8.9,6.7c8,0.4,13.5-3.6,18.2-9.2c1.8,4.5,5.4,7.5,10.8,8.6
	c3.8,0.7,7.9,0.8,11.7,0.2C60.6,64.6,66.7,58.5,71.2,50.6L71.2,50.6z M46.1,21.1c2.5-3.1,5.8-4.8,9.8-5c5.5-0.3,8.8,4.2,7.7,10.2
	c-0.8,4-3.1,6.8-6.6,8.7C53,37,43.8,39,39,38.5C40.3,32.3,42,26.1,46.1,21.1z"/>
<g>
	<path fill="#FFFFFF" d="M41.3,101.7c-1.8,8.6-5.1,14.4-15.2,14.4H9.9l32.3-50H2.5v15.7h1l0.1-0.3c1.8-8.6,5.1-14.4,15.2-14.4h13.7
		L0,117.2h42.3v-15.7h-1L41.3,101.7z"/>
	<path fill="#FFFFFF" d="M93.4,109.8c-0.3,2.6-2,4.3-4.3,4.3c-2.4,0-3.8-1.6-3.8-4.3V84.6c0-12.1-7.1-19.6-18.6-19.6
		c-10.5,0-16.9,7-16.9,13.5c0,3.4,2.3,6,5.4,6c3.3,0,5.6-2.3,5.6-5.4c0-3.5-2.7-5.4-5.3-5.4c-1.2,0-2.1,0.4-2.7,0.7
		c-0.1,0.1-0.3,0.1-0.3,0.1c-0.1,0-0.1,0-0.1-0.1c0-1.7,4-8.1,12.8-8.1c8.3,0,12.7,3.6,12.7,10.4c0,9.3-7.1,11.8-14.7,14.4
		c-7.4,2.6-15,5.2-15,14.8c0,8.5,7.1,12.4,13.7,12.4c7.3,0,12.8-4.3,15.3-8.6c0.8,5.9,3.5,8.6,8.6,8.6c5.9,0,8.5-5.1,8.7-8.3l0-0.4
		h-1L93.4,109.8z M66.4,114.6c-5.7,0-9.4-3.7-9.4-9.5c0-8.2,5.3-11,10.9-14c3.3-1.8,6.8-3.6,9.1-6.7v20.5
		C76.9,109.6,73.2,114.6,66.4,114.6z"/>
	<path fill="#FFFFFF" d="M122.7,84.9l6.6-7.3l0.3-0.3c4.7-5.2,9.1-10.1,13.5-10.1h0.8v-1h-17.6v1h1.1c2.4,0,4,0.6,4.5,1.8
		c0.8,1.7-0.5,4.7-3.5,8l-18.1,20.6V47H94.5v1h7.2v68.1h-6.2v1h20.8v-1h-6.1V99.2l6.8-7.7l14.3,24.7h-6.4v1h21.3v-1h-5.3L122.7,84.9
		z"/>
	<path fill="#FFFFFF" d="M180.9,88l0-0.4c0.2-7.4-1.8-13.4-5.8-17.5c-3.3-3.4-7.9-5.3-13.3-5.3c-13,0-22.8,11.5-22.8,26.9
		c0,15.1,9.9,26.5,23.1,26.5c9.7,0,16.6-5.2,17.4-13.3l0-0.4h-1.1l0,0.3c-0.8,6.7-5.9,11.1-13,11.1c-12.8,0-17.3-12.7-17.3-23.6
		c0-1.4,0-2.8,0.1-4.2H180.9z M161.9,65.9c2.1,0,3.7,0.7,5.1,2.1c3,3,4.3,9.2,4.2,19h-22.9C149.5,73.8,154.5,65.9,161.9,65.9z"/>
</g>
</svg>
