<?xml version="1.0" encoding="utf-8"?>
<!-- Generator: Adobe Illustrator 17.1.0, SVG Export Plug-In . SVG Version: 6.00 Build 0)  -->
<!DOCTYPE svg PUBLIC "-//W3C//DTD SVG 1.1//EN" "http://www.w3.org/Graphics/SVG/1.1/DTD/svg11.dtd">
<svg version="1.1" id="Laag_1" xmlns="http://www.w3.org/2000/svg" xmlns:xlink="http://www.w3.org/1999/xlink" x="0px" y="0px"
	  width="12px" viewBox="0 0 183 62" enable-background="new 0 0 183 62" xml:space="preserve">
<g>

		<g>
			<path fill="#EC333B" d="M68.5,57.6l-6.7-9.6l-1.7,2.1v7.5h-6.6V32h6.6v10.5L68,32h8.1l-9.9,12l10.5,13.6H68.5z"/>
			<path fill="#EC333B" d="M79.8,57.6V32h6.6v25.6H79.8z"/>
			<path fill="#EC333B" d="M92.3,57.6V32h18.8v5.8H98.9v4h11.9v5.8H98.9v4.3h12.2v5.8H92.3z"/>
			<path fill="#EC333B" d="M114.3,54l3.5-5.1c1.8,1.8,4.7,3.4,8.2,3.4c2.2,0,3.6-0.8,3.6-2c0-3.4-14.5-0.6-14.5-10.4
				c0-4.3,3.6-8.1,10.2-8.1c4.1,0,7.7,1.2,10.4,3.6l-3.6,5c-2.1-1.8-5-2.7-7.5-2.7c-1.9,0-2.8,0.7-2.8,1.8c0,3.1,14.5,0.8,14.5,10.3
				c0,5.1-3.8,8.6-10.7,8.6C120.5,58,116.9,56.4,114.3,54z"/>
			<path fill="#EC333B" d="M146.4,57.6V37.7h-7.2V32h20.9v5.8H153v19.8H146.4z"/>
		</g>

	<g>
		<path fill="#00A9CC" d="M20.3,25.6L19,21.9H8.9l-1.3,3.7H0.1L9.8,0h8.3l9.6,25.6H20.3z M14,6.5l-3.3,9.6h6.5L14,6.5z"/>
		<path fill="#00A9CC" d="M53.3,25.6V8.7l-6.4,16.9H44L37.5,8.7v16.9h-6.6V0h9.2l5.4,14.1L50.8,0h9.2v25.6H53.3z"/>
		<path fill="#00A9CC" d="M65.8,25.6V0h18.8v5.8H72.4v4h11.9v5.8H72.4v4.3h12.2v5.8H65.8z"/>
		<path fill="#00A9CC" d="M103.9,25.6L99.6,17h-3.4v8.6h-6.6V0h12.8c5.7,0,8.9,3.8,8.9,8.5c0,4.5-2.7,6.8-5.1,7.7l5.2,9.4H103.9z
			 M104.7,8.5c0-1.8-1.4-2.7-3.2-2.7h-5.2v5.5h5.2C103.3,11.2,104.7,10.3,104.7,8.5z"/>
		<path fill="#00A9CC" d="M116.3,25.6V0h6.6v25.6H116.3z"/>
		<path fill="#00A9CC" d="M143.8,25.6l-6.7-9.6l-1.7,2.1v7.5h-6.6V0h6.6v10.5L143.2,0h8.1l-9.9,12l10.5,13.6H143.8z"/>
		<path fill="#00A9CC" d="M172.5,25.6l-1.3-3.7h-10.1l-1.3,3.7h-7.5L162,0h8.3l9.6,25.6H172.5z M166.2,6.5l-3.3,9.6h6.5L166.2,6.5z"
			/>
	</g>
	<path fill="#F5F3F1" d="M15.4,39.9v6.6C26,45.1,36.5,40.6,47,45c0-2.2,0-4.4,0-6.6C36.5,33.9,26,38.4,15.4,39.9z"/>
	<path fill="#F5F3F1" d="M0,57.2c0-2.2,0-4.4,0-6.6c15.7,6.6,31.3-6.6,47,0c0,2.2,0,4.4,0,6.6C31.3,50.6,15.7,63.9,0,57.2z"/>
</g>
</svg>
