<?xml version="1.0" encoding="utf-8"?>
<!-- Generator: Adobe Illustrator 17.1.0, SVG Export Plug-In . SVG Version: 6.00 Build 0)  -->
<!DOCTYPE svg PUBLIC "-//W3C//DTD SVG 1.1//EN" "http://www.w3.org/Graphics/SVG/1.1/DTD/svg11.dtd">
<svg version="1.1" id="Laag_1" xmlns="http://www.w3.org/2000/svg" xmlns:xlink="http://www.w3.org/1999/xlink" x="0px" y="0px"
	 viewBox="0 0 980 550" enable-background="new 0 0 980 550" xml:space="preserve">
<g>
	<g>
		<g>
			<path fill="#EC333B" d="M375.5,418.5l-34.9-50.1l-9,11.2v38.9h-34.3V285.4h34.3v54.7l40.9-54.7h42.3l-51.7,62.2l54.5,70.8H375.5z
				"/>
			<path fill="#EC333B" d="M434.3,418.5V285.4h34.3v133.1H434.3z"/>
			<path fill="#EC333B" d="M499.1,418.5V285.4h97.6v29.9h-63.2v20.7h61.8V366h-61.8v22.5h63.2v29.9H499.1z"/>
			<path fill="#EC333B" d="M613.6,399.7l18.2-26.7c9.6,9.6,24.3,17.6,42.7,17.6c11.6,0,18.8-4,18.8-10.6c0-17.6-75.2-3-75.2-54.3
				c0-22.3,18.8-42.3,52.9-42.3c21.3,0,39.9,6.4,54.1,18.6l-18.8,25.7c-11.2-9.4-25.7-14-38.9-14c-10,0-14.4,3.4-14.4,9.2
				c0,16.4,75.2,4,75.2,53.5c0,26.7-19.7,44.5-55.5,44.5C645.8,420.9,627,412.3,613.6,399.7z"/>
			<path fill="#EC333B" d="M780.4,418.5V315.3h-37.3v-29.9h108.7v29.9h-37.1v103.1H780.4z"/>
		</g>
	</g>
	<g>
		<path fill="#00A9CC" d="M124.5,252.3l-6.6-19.2H65.5l-6.6,19.2H20l50.1-133.1h43.3l50.1,133.1H124.5z M91.8,153.1l-17,50.1h33.7
			L91.8,153.1z"/>
		<path fill="#00A9CC" d="M296.5,252.3v-88l-33.5,88h-15.2l-33.7-88v88h-34.3V119.2h47.7l27.9,73.4l27.7-73.4h47.7v133.1H296.5z"/>
		<path fill="#00A9CC" d="M361.3,252.3V119.2h97.6v29.9h-63.2v20.7h61.8v29.9h-61.8v22.5h63.2v29.9H361.3z"/>
		<path fill="#00A9CC" d="M559.6,252.3l-22.3-44.7h-17.6v44.7h-34.3V119.2H552c29.5,0,46.3,19.6,46.3,44.3c0,23.1-14,35.5-26.5,39.9
			l27.1,48.9H559.6z M563.4,163.3c0-9.2-7.4-14.2-16.6-14.2h-27.1v28.5h27.1C556,177.6,563.4,172.7,563.4,163.3z"/>
		<path fill="#00A9CC" d="M623.8,252.3V119.2h34.3v133.1H623.8z"/>
		<path fill="#00A9CC" d="M766.9,252.3L732,202.2l-9,11.2v38.9h-34.3V119.2H723v54.7l40.9-54.7h42.3l-51.7,62.2l54.5,70.8H766.9z"/>
		<path fill="#00A9CC" d="M916.1,252.3l-6.6-19.2H857l-6.6,19.2h-38.9l50.1-133.1h43.3L955,252.3H916.1z M883.4,153.1l-17,50.1h33.7
			L883.4,153.1z"/>
	</g>
	<path fill="#F5F3F1" d="M99.5,326.5v34.4c54.7-7.5,109.3-30.9,164-7.8c0-11.5,0-22.9,0-34.4C208.8,295.6,154.2,319.1,99.5,326.5z"
		/>
	<path fill="#F5F3F1" d="M19.2,416.7c0-11.5,0-22.9,0-34.4c81.4,34.4,162.8-34.4,244.3,0c0,11.5,0,22.9,0,34.4
		C182.1,382.3,100.7,451.1,19.2,416.7z"/>
</g>
</svg>
