<?xml version="1.0" encoding="utf-8"?>
<!-- Generator: Adobe Illustrator 17.1.0, SVG Export Plug-In . SVG Version: 6.00 Build 0)  -->
<!DOCTYPE svg PUBLIC "-//W3C//DTD SVG 1.1//EN" "http://www.w3.org/Graphics/SVG/1.1/DTD/svg11.dtd">
<svg version="1.1" id="Laag_1" xmlns="http://www.w3.org/2000/svg" xmlns:xlink="http://www.w3.org/1999/xlink" x="0px" y="0px"
	 width="14px" viewBox="0 0 580.3 550" enable-background="new 0 0 580.3 550" xml:space="preserve">
<g>
	<path fill="#0072BA" d="M290.2,0c160.3,0,290.2,49.6,290.2,176.9c0,127.3-129.9,372.9-290.2,372.9C129.9,549.8,0,304.3,0,176.9
		C0,49.6,129.9,0,290.2,0"/>
	<g>
		<path fill="#FFFCED" d="M222.9,192.2l-3.5-14.9l12.7,8.4L222.9,192.2z M183.5,212.2l-7.6,5.3l-7-9.9l7.5-5.3
			c3.8-2.6,7.3-2.7,9.6,0.6l0.1,0.1C188.3,206,187.3,209.5,183.5,212.2 M256,146.9c6.9-4.8,14.1-4.1,18.7,2.5l0.1,0.1
			c4.6,6.6,2.8,13.6-4.1,18.4l-4.6,3.2l-14.7-21L256,146.9z M249.8,197.6l12-8.4l15.7-11c14.7-10.3,17.2-25.2,8.9-37l-0.1-0.1
			c-8.3-11.9-22.7-14.4-37.4-4.1L233,148.1l28.4,40.5l-45.8-28.7l-11,7.7l11.3,52.2l-18.3-6.9c3.6-5.8,4-12.3-0.4-18.6l-0.1-0.1
			c-2.8-4.1-6.3-6.3-10.3-7c-4.7-0.8-10.2,0.6-16.5,5l-19.4,13.6l28.8,41.1l11.4-8l-8.7-12.4l5.1-3.5l17,6.7l13.1-9.2l10.7-7.5
			l-2.2-9.5l15.9-11.1L249.8,197.6z"/>
		<polygon fill="#FFFCED" points="315.5,151.6 286.7,110.5 275.3,118.4 304.1,159.5 		"/>
		<path fill="#FFFCED" d="M318.7,102.2c6.3-4.4,14.1-2.3,18.3,3.7l0.1,0.1c4.2,5.9,3.5,13.9-2.7,18.3c-6.3,4.4-14.2,2.2-18.3-3.7
			l-0.1-0.1C311.8,114.5,312.4,106.6,318.7,102.2 M304.5,128.9c8.3,11.8,24.3,14.7,37,5.8c12.7-8.9,15.5-25.1,7.2-36.9l-0.1-0.1
			c-8.3-11.8-24.3-14.7-37-5.8c-12.7,8.9-15.5,25.1-7.2,36.9L304.5,128.9z"/>
		<polygon fill="#FFFCED" points="249.3,431.2 353.3,431.2 353.3,143.6 249.3,216.5 		"/>
	</g>
</g>
</svg>
