<?xml version="1.0" encoding="utf-8"?>
<!-- Generator: Adobe Illustrator 17.1.0, SVG Export Plug-In . SVG Version: 6.00 Build 0)  -->
<!DOCTYPE svg PUBLIC "-//W3C//DTD SVG 1.1//EN" "http://www.w3.org/Graphics/SVG/1.1/DTD/svg11.dtd">
<svg version="1.1" id="Laag_1" xmlns="http://www.w3.org/2000/svg" xmlns:xlink="http://www.w3.org/1999/xlink" x="0px" y="0px"
	 width="14px" viewBox="0 0 966 915.2" enable-background="new 0 0 966 915.2" xml:space="preserve">
<g>
	<polygon fill="#FFFDE9" points="371.1,319.9 386.4,309.1 365.2,295.1 	"/>
	<path fill="#FFFDE9" d="M309.7,337.7c-3.8-5.5-9.8-5.4-16-1l-12.5,8.8l11.6,16.5l12.6-8.8c6.3-4.4,8-10.3,4.5-15.2L309.7,337.7z"/>
	<path fill="#FFFDE9" d="M450.6,279.4c11.4-8,14.6-19.5,6.8-30.6l-0.1-0.2c-7.7-10.9-19.7-12.1-31.2-4.1l-7.7,5.4l24.4,34.9
		L450.6,279.4z"/>
	<path fill="#FFFDE9" d="M483,0C216.2,0,0,82.6,0,294.5c0,211.9,216.2,620.7,483,620.7c266.8,0,483-408.8,483-620.7
		C966,82.6,749.7,0,483,0z M518.7,152.8c21.1-14.8,47.8-10,61.5,9.6l0.1,0.2c13.7,19.6,9.1,46.7-12,61.5
		c-21.1,14.8-47.8,10-61.5-9.7l-0.1-0.2C492.9,194.7,497.5,167.6,518.7,152.8z M477.3,183.8l47.9,68.4l-19,13.3l-47.9-68.4
		L477.3,183.8z M379.6,354.3l-17.9,12.5L339.9,382L311.6,371l-8.4,5.9l14.5,20.7l-19,13.3l-47.9-68.4l32.4-22.7
		c10.5-7.3,19.6-9.7,27.4-8.3c6.8,1.2,12.5,4.9,17.2,11.7l0.1,0.2c7.4,10.6,6.7,21.4,0.7,31l30.5,11.5l-18.7-87l18.3-12.8l76.2,47.8
		l-47.2-67.4l26.5-18.6c24.4-17,48.4-12.9,62.2,6.9l0.1,0.2c13.8,19.8,9.7,44.5-14.8,61.6l-26.1,18.3l-19.9,13.9l-13.5-8.9
		l-26.5,18.5L379.6,354.3z M588.2,717.8H414.9V360.3L588.2,239V717.8z"/>
	<path fill="#FFFDE9" d="M526,200.7c6.9,9.9,20.1,13.5,30.5,6.1c10.4-7.3,11.4-20.5,4.5-30.4l-0.1-0.2c-7-10-20-13.6-30.4-6.2
		c-10.5,7.3-11.5,20.6-4.6,30.5L526,200.7z"/>
</g>
</svg>
