<svg xmlns="http://www.w3.org/2000/svg" viewBox="0 0 150.72 61.9"><defs><style>.cls-1{fill:#fce41a;}.cls-2{fill:#faf8f9;}</style></defs><title>Asset 1</title><g id="Layer_2" data-name="Layer 2"><g id="Laag_2" data-name="Laag 2"><rect class="cls-1" y="37.01" width="150.45" height="24.89"/><path class="cls-2" d="M15.76,31.32a.62.62,0,0,1-.37.55,15,15,0,0,1-4.32.78c-4,0-7.82-2.07-7.82-7.4l0-11.86H.63A.41.41,0,0,1,.21,13v-4a.41.41,0,0,1,.41-.41H3.29L3.25,3a.41.41,0,0,1,.41-.41H9.78a.41.41,0,0,1,.41.41l0,5.52h5.24a.41.41,0,0,1,.41.41v4a.41.41,0,0,1-.41.41H10.1l0,11.68c0,2,1,2.67,2.53,2.67a8.32,8.32,0,0,0,2.67-.41.34.34,0,0,1,.41.32Z"/><path class="cls-2" d="M39.21,24.19a.35.35,0,0,1,.37.41c-.6,4.32-4.74,8.19-11.36,8.19C20.31,32.79,16,27.59,16,20.42a12.7,12.7,0,0,1,3.22-9.06,11.53,11.53,0,0,1,8.83-3.45c7.73,0,12.09,5.2,12.23,13.43a.41.41,0,0,1-.41.41H23c.23,4.41,2,6.44,5.33,6.44a4.33,4.33,0,0,0,4.6-3.59.54.54,0,0,1,.51-.41Zm-6.35-6.81c-.23-2.53-1.75-4.92-4.74-4.92-2.76,0-4.41,1.66-5,4.92Z"/><path class="cls-2" d="M42.29,32.19a.41.41,0,0,1-.41-.41l.18-11.45-.18-11.4a.41.41,0,0,1,.41-.41h6.07a.41.41,0,0,1,.41.41l-.18,3.59a9.8,9.8,0,0,1,8.46-4.18,7.55,7.55,0,0,1,1.06.09.54.54,0,0,1,.41.51V13.2a.38.38,0,0,1-.41.37,5.57,5.57,0,0,0-.87,0,9.21,9.21,0,0,0-6.07,2,7.44,7.44,0,0,0-2.39,6.12V31.78a.41.41,0,0,1-.41.41Z"/><path class="cls-2" d="M79.45,31.78a.41.41,0,0,1-.41.41H59.86a.41.41,0,0,1-.41-.41v-4a1.13,1.13,0,0,1,.28-.74L70.34,13.38H60.82a.41.41,0,0,1-.41-.41v-4a.41.41,0,0,1,.41-.41H78.34a.41.41,0,0,1,.41.41v4.14a1.13,1.13,0,0,1-.28.74L67.72,27.32H79a.41.41,0,0,1,.41.41Z"/><path class="cls-2" d="M97.38,32.19a.41.41,0,0,1-.41-.41l.09-2.35a8.68,8.68,0,0,1-7,3.22c-6.67,0-10.25-5.33-10.25-12.23S83.77,8,90.21,8a8.64,8.64,0,0,1,6.85,3l-.14-2.12a.41.41,0,0,1,.41-.41h6.16a.41.41,0,0,1,.41.41l-.14,11.45.14,11.4a.41.41,0,0,1-.41.41ZM92,28.05c3.31,0,5.15-2.58,5.2-7.54s-1.75-7.82-5.06-7.86c-3.49,0-5.29,2.58-5.29,7.4C86.85,25.38,88.69,28.1,92,28.05Z"/><path class="cls-2" d="M118,27.22,115.08,22l-2.25,2.85,0,6.94a.41.41,0,0,1-.41.41h-6a.41.41,0,0,1-.41-.41l.18-15.68L106,.41a.41.41,0,0,1,.41-.41h6a.41.41,0,0,1,.41.41L112.74,16v1.43l6.85-8.55a1.07,1.07,0,0,1,.69-.32H127c.18,0,.18.18.14.32L119.87,17l8.55,14.81c0,.18,0,.37-.23.37H121c-.23,0-.55-.14-.6-.37Z"/><path class="cls-2" d="M149.62,24.19a.35.35,0,0,1,.37.41c-.6,4.32-4.74,8.19-11.36,8.19-7.91,0-12.19-5.2-12.19-12.37a12.7,12.7,0,0,1,3.22-9.06,11.53,11.53,0,0,1,8.83-3.45c7.73,0,12.09,5.2,12.23,13.43a.41.41,0,0,1-.41.41H133.39c.23,4.41,2,6.44,5.33,6.44a4.33,4.33,0,0,0,4.6-3.59.54.54,0,0,1,.51-.41Zm-6.35-6.81c-.23-2.53-1.75-4.92-4.74-4.92-2.76,0-4.41,1.66-5,4.92Z"/></g></g></svg>