<?xml version="1.0" encoding="utf-8"?>
<!-- Generator: Adobe Illustrator 17.1.0, SVG Export Plug-In . SVG Version: 6.00 Build 0)  -->
<!DOCTYPE svg PUBLIC "-//W3C//DTD SVG 1.1//EN" "http://www.w3.org/Graphics/SVG/1.1/DTD/svg11.dtd">
<svg version="1.1" id="Laag_1" xmlns="http://www.w3.org/2000/svg" xmlns:xlink="http://www.w3.org/1999/xlink" x="0px" y="0px"
	 viewBox="0 0 580.3 550" width="14px" enable-background="new 0 0 580.3 550" xml:space="preserve">
<g>
	<path fill="#FFFFFF" d="M186.1,202.9c-2.3-3.3-5.9-3.2-9.6-0.6l-7.5,5.3l7,9.9l7.6-5.3c3.8-2.7,4.8-6.2,2.7-9.1L186.1,202.9z"/>
	<polygon fill="#FFFFFF" points="222.9,192.2 232.1,185.7 219.4,177.3 	"/>
	<path fill="#FFFFFF" d="M290.2,0C129.9,0,0,49.6,0,176.9c0,127.3,129.9,372.9,290.2,372.9c160.3,0,290.2-245.6,290.2-372.9
		C580.3,49.6,450.4,0,290.2,0z M311.6,91.8c12.7-8.9,28.7-6,37,5.8l0.1,0.1c8.3,11.8,5.5,28-7.2,36.9c-12.7,8.9-28.7,6-37-5.8
		l-0.1-0.1C296.1,116.9,298.9,100.7,311.6,91.8z M286.7,110.5l28.8,41.1l-11.4,8l-28.8-41.1L286.7,110.5z M228,212.8l-10.7,7.5
		l-13.1,9.2l-17-6.7l-5.1,3.5l8.7,12.4l-11.4,8l-28.8-41.1l19.4-13.6c6.3-4.4,11.8-5.8,16.5-5c4.1,0.7,7.5,3,10.3,7l0.1,0.1
		c4.4,6.3,4,12.9,0.4,18.6l18.3,6.9l-11.3-52.2l11-7.7l45.8,28.7L233,148.1l15.9-11.1c14.6-10.2,29.1-7.7,37.4,4.1l0.1,0.1
		c8.3,11.9,5.8,26.7-8.9,37l-15.7,11l-12,8.4l-8.1-5.3l-15.9,11.1L228,212.8z M353.3,431.2H249.3V216.5l104.1-72.9V431.2z"/>
	<path fill="#FFFFFF" d="M270.7,167.9c6.9-4.8,8.8-11.7,4.1-18.4l-0.1-0.1c-4.6-6.6-11.8-7.3-18.7-2.5l-4.6,3.2l14.7,21L270.7,167.9
		z"/>
	<path fill="#FFFFFF" d="M316,120.6c4.2,5.9,12.1,8.1,18.3,3.7c6.2-4.4,6.9-12.3,2.7-18.3l-0.1-0.1c-4.2-6-12-8.1-18.3-3.7
		c-6.3,4.4-6.9,12.4-2.8,18.3L316,120.6z"/>
</g>
</svg>
